<svg width="100" height="100" viewBox="0 0 100 100" fill="none" xmlns="http://www.w3.org/2000/svg">
<rect width="100" height="100" rx="50" fill="#3F9444"/>
<path d="M66.5 40.375H63.75V37.625C63.75 36.8957 63.4603 36.1962 62.9445 35.6805C62.4288 35.1647 61.7293 34.875 61 34.875H55.5C54.7707 34.875 54.0712 35.1647 53.5555 35.6805C53.0397 36.1962 52.75 36.8957 52.75 37.625V40.375H47.25V37.625C47.25 36.8957 46.9603 36.1962 46.4445 35.6805C45.9288 35.1647 45.2293 34.875 44.5 34.875H39C38.2707 34.875 37.5712 35.1647 37.0555 35.6805C36.5397 36.1962 36.25 36.8957 36.25 37.625V40.375H33.5C32.7707 40.375 32.0712 40.6647 31.5555 41.1805C31.0397 41.6962 30.75 42.3957 30.75 43.125V59.625C30.75 60.3543 31.0397 61.0538 31.5555 61.5695C32.0712 62.0853 32.7707 62.375 33.5 62.375H66.5C67.2293 62.375 67.9288 62.0853 68.4445 61.5695C68.9603 61.0538 69.25 60.3543 69.25 59.625V43.125C69.25 42.3957 68.9603 41.6962 68.4445 41.1805C67.9288 40.6647 67.2293 40.375 66.5 40.375ZM39 37.625H44.5V40.375H39V37.625ZM45.875 52.75H40.375C40.0103 52.75 39.6606 52.6051 39.4027 52.3473C39.1449 52.0894 39 51.7397 39 51.375C39 51.0103 39.1449 50.6606 39.4027 50.4027C39.6606 50.1449 40.0103 50 40.375 50H45.875C46.2397 50 46.5894 50.1449 46.8473 50.4027C47.1051 50.6606 47.25 51.0103 47.25 51.375C47.25 51.7397 47.1051 52.0894 46.8473 52.3473C46.5894 52.6051 46.2397 52.75 45.875 52.75ZM59.625 52.75H58.25V54.125C58.25 54.4897 58.1051 54.8394 57.8473 55.0973C57.5894 55.3551 57.2397 55.5 56.875 55.5C56.5103 55.5 56.1606 55.3551 55.9027 55.0973C55.6449 54.8394 55.5 54.4897 55.5 54.125V52.75H54.125C53.7603 52.75 53.4106 52.6051 53.1527 52.3473C52.8949 52.0894 52.75 51.7397 52.75 51.375C52.75 51.0103 52.8949 50.6606 53.1527 50.4027C53.4106 50.1449 53.7603 50 54.125 50H55.5V48.625C55.5 48.2603 55.6449 47.9106 55.9027 47.6527C56.1606 47.3949 56.5103 47.25 56.875 47.25C57.2397 47.25 57.5894 47.3949 57.8473 47.6527C58.1051 47.9106 58.25 48.2603 58.25 48.625V50H59.625C59.9897 50 60.3394 50.1449 60.5973 50.4027C60.8551 50.6606 61 51.0103 61 51.375C61 51.7397 60.8551 52.0894 60.5973 52.3473C60.3394 52.6051 59.9897 52.75 59.625 52.75ZM61 40.375H55.5V37.625H61V40.375Z" fill="white"/>
</svg>
