<svg width="69" height="62" viewBox="0 0 69 62" fill="none" xmlns="http://www.w3.org/2000/svg">
<path fill-rule="evenodd" clip-rule="evenodd" d="M32.166 39.2913V7.44531H39.6016V39.2913H32.166Z" fill="#134F1A"/>
<path fill-rule="evenodd" clip-rule="evenodd" d="M51.7577 20.2867C50.5018 21.3492 50.4564 23.2714 51.6598 24.3937L61.8581 33.9018L56.7864 39.3412L46.5882 29.833C42.1278 25.6759 42.2973 18.5579 46.9487 14.6157L64.1933 0L69 5.67339L51.7553 20.2891L51.7577 20.2867Z" fill="#134F1A"/>
<path fill-rule="evenodd" clip-rule="evenodd" d="M38.3245 46.4615C40.538 44.248 43.5395 43.0063 46.6675 43.0063H64.1724V50.4419H46.6675C45.5094 50.4419 44.3991 50.9028 43.5824 51.7194L37.1641 58.1378C34.9506 60.3512 31.9491 61.5953 28.8187 61.5953H16.8105V54.1597H28.8187C29.9768 54.1597 31.0871 53.6989 31.9062 52.8822L38.3245 46.4639V46.4615Z" fill="#134F1A"/>
<path fill-rule="evenodd" clip-rule="evenodd" d="M18.2929 14.8784H3.7154V7.44287H18.2929C29.4223 7.44287 32.4859 22.7414 22.2136 27.0251L11.0579 31.6789C8.86347 32.5935 7.43558 34.7377 7.43558 37.1159C7.43558 40.3681 10.0717 43.0066 13.3263 43.0066H28.4505V50.4422H13.3263C5.96709 50.4422 0 44.4751 0 37.1159C0 31.7386 3.23307 26.8866 8.19728 24.8164L19.353 20.1626C22.1253 19.0069 21.2991 14.8784 18.2952 14.8784H18.2929Z" fill="#134F1A"/>
<path d="M17.6172 32.1758H24.7304V39.289H17.6172V32.1758Z" fill="#134F1A"/>
</svg>
