<svg width="131" height="138" viewBox="0 0 131 138" fill="none" xmlns="http://www.w3.org/2000/svg">
<g clip-path="url(#clip0_710_855)">
<g clip-path="url(#clip1_710_855)">
<g clip-path="url(#clip2_710_855)">
<path d="M65.1134 119.729C92.3566 119.729 114.442 97.3829 114.442 69.8181C114.442 42.2532 92.3566 19.9075 65.1134 19.9075C37.8701 19.9075 15.7852 42.2532 15.7852 69.8181C15.7852 97.3829 37.8701 119.729 65.1134 119.729Z" fill="#E9FBD5"/>
<path d="M90.2136 53.0396H34.1289C33.0243 53.0396 32.1289 53.935 32.1289 55.0396V90.5449C32.1289 91.6494 33.0243 92.5449 34.1289 92.5449H90.2136C91.3182 92.5449 92.2136 91.6494 92.2136 90.5449V55.0396C92.2136 53.935 91.3182 53.0396 90.2136 53.0396Z" fill="#292C32" stroke="#292C32" stroke-width="2"/>
<path d="M95.4011 47.4185H39.3164C38.2118 47.4185 37.3164 48.3139 37.3164 49.4185V84.9238C37.3164 86.0283 38.2118 86.9238 39.3164 86.9238H95.4011C96.5057 86.9238 97.4011 86.0283 97.4011 84.9238V49.4185C97.4011 48.3139 96.5057 47.4185 95.4011 47.4185Z" fill="#B6F174" stroke="#292C32" stroke-width="2"/>
<path d="M83.4313 81.9945C85.65 81.9945 87.4485 80.1694 87.4485 77.9181C87.4485 75.6667 85.65 73.8417 83.4313 73.8417C81.2126 73.8417 79.4141 75.6667 79.4141 77.9181C79.4141 80.1694 81.2126 81.9945 83.4313 81.9945Z" fill="white"/>
<path d="M88.7868 81.9945C91.0054 81.9945 92.804 80.1694 92.804 77.9181C92.804 75.6667 91.0054 73.8417 88.7868 73.8417C86.5681 73.8417 84.7695 75.6667 84.7695 77.9181C84.7695 80.1694 86.5681 81.9945 88.7868 81.9945Z" fill="#134F1A"/>
<path d="M61.3445 77.2487H44.9546C44.5849 77.2487 44.2852 77.5484 44.2852 77.9181C44.2852 78.2878 44.5849 78.5875 44.9546 78.5875H61.3445C61.7142 78.5875 62.014 78.2878 62.014 77.9181C62.014 77.5484 61.7142 77.2487 61.3445 77.2487Z" fill="white"/>
<path d="M102.606 35.8203C95.8122 28.1542 86.8738 22.7513 76.9731 20.3264C67.0723 17.9015 56.6757 18.5689 47.1587 22.2404C37.6418 25.9118 29.453 32.4142 23.6758 40.8873C17.8985 49.3604 14.8051 59.405 14.8047 69.692V73.9422" stroke="#292C32" stroke-width="2" stroke-linecap="round" stroke-linejoin="round"/>
<path d="M27.6211 103.57C34.4142 111.235 43.3521 116.638 53.2523 119.063C63.1526 121.488 73.5487 120.821 83.0654 117.151C92.5821 113.48 100.771 106.978 106.549 98.506C112.326 90.0337 115.421 79.99 115.422 69.7034V65.4758" stroke="#292C32" stroke-width="2" stroke-linecap="round" stroke-linejoin="round"/>
<path fill-rule="evenodd" clip-rule="evenodd" d="M128.909 76.8949L116.329 64.1949C116.139 64.0049 115.889 63.8949 115.619 63.8949C115.349 63.8949 115.099 64.0049 114.909 64.1949L113.419 65.7049C113.209 65.7349 113.009 65.8349 112.869 65.9849L100.289 78.6849C100.009 78.9749 99.9188 79.4049 100.079 79.7749C100.229 80.1449 100.599 80.3849 100.999 80.3849H126.149C126.559 80.3849 126.919 80.1449 127.079 79.7749C127.229 79.4049 127.149 78.9749 126.859 78.6849L126.769 78.5949H128.199C128.599 78.5949 128.969 78.3549 129.119 77.9849C129.279 77.6049 129.189 77.1749 128.909 76.8949Z" fill="#292C32"/>
<path fill-rule="evenodd" clip-rule="evenodd" d="M125.799 76.5949H105.439L113.709 68.2449L114.419 67.5349L115.119 66.8249L115.619 66.3149L125.799 76.5949Z" fill="#134F1A"/>
<path fill-rule="evenodd" clip-rule="evenodd" d="M28.3041 61.5149C28.1441 61.1449 27.7841 60.8949 27.3841 60.8949H2.22408C1.82408 60.8949 1.46408 61.1449 1.30408 61.5149C1.14408 61.8849 1.23408 62.3149 1.51408 62.6049L2.03408 63.1249H1.00408C0.594078 63.1249 0.234078 63.3649 0.0740782 63.7349C-0.0759218 64.1049 0.00407824 64.5349 0.294078 64.8249L12.8641 77.5249C13.0541 77.7149 13.3141 77.8249 13.5741 77.8249C13.8441 77.8249 14.1041 77.7149 14.2841 77.5249L26.8641 64.8249C27.1541 64.5349 27.2341 64.1049 27.0741 63.7349C27.0641 63.7149 27.0541 63.6949 27.0441 63.6749L28.0941 62.6049C28.3741 62.3149 28.4641 61.8849 28.3041 61.5149ZM24.7541 63.1249L22.7741 65.1249L14.8041 73.1749L6.83408 65.1249L4.85408 63.1249L4.62408 62.8949H4.64408L4.85408 63.1049L6.83408 65.1049L14.8041 73.1549L22.7741 65.1049L24.7541 63.1049L24.9641 62.8949H24.9841L24.7541 63.1249Z" fill="#292C32"/>
<path fill-rule="evenodd" clip-rule="evenodd" d="M24.985 62.8949L24.755 63.1249L22.775 65.1249L14.805 73.1749L6.835 65.1249L4.855 63.1249L4.625 62.8949H24.985Z" fill="#134F1A"/>
</g>
</g>
</g>
<defs>
<clipPath id="clip0_710_855">
<rect width="131" height="137" fill="white" transform="translate(0 0.894897)"/>
</clipPath>
<clipPath id="clip1_710_855">
<rect width="131" height="137" fill="white" transform="translate(0 0.894897)"/>
</clipPath>
<clipPath id="clip2_710_855">
<rect width="131" height="137" fill="white" transform="translate(0 0.894897)"/>
</clipPath>
</defs>
</svg>
