<svg width="100" height="100" viewBox="0 0 100 100" fill="none" xmlns="http://www.w3.org/2000/svg">
<g clip-path="url(#clip0_1231_930)">
<path d="M49.9921 99.9842C77.602 99.9842 99.9842 77.602 99.9842 49.9921C99.9842 22.3822 77.602 0 49.9921 0C22.3822 0 0 22.3822 0 49.9921C0 77.602 22.3822 99.9842 49.9921 99.9842Z" fill="#E9FBD5"/>
<path d="M47.7599 81.7319C29.9666 76.8878 20.7534 62.2606 22.5422 35.0642C22.7005 32.6896 24.8059 30.7583 27.1805 30.6792C34.5732 30.4417 40.098 27.1174 45.5436 22.6216C46.8417 21.5451 48.7097 21.5451 49.9919 22.6216C55.4376 27.1332 60.9623 30.4417 68.3551 30.6792C70.7296 30.7583 72.8351 32.6896 72.9934 35.0642C74.7664 62.2606 65.5531 76.9037 47.7757 81.7319H47.7599Z" fill="#191919" stroke="#191919" stroke-width="1.36141" stroke-miterlimit="10"/>
<path d="M50.4371 79.9177C32.6439 75.0736 23.4306 60.4464 25.2195 33.25C25.3778 30.8754 27.4832 28.9441 29.8577 28.865C37.2505 28.6275 42.7753 25.3031 48.2209 20.8073C49.519 19.7309 51.3869 19.7309 52.6692 20.8073C58.1148 25.319 63.6396 28.6275 71.0323 28.865C73.4069 28.9441 75.5123 30.8754 75.6706 33.25C77.4436 60.4464 68.2304 75.0894 50.453 79.9177H50.4371Z" fill="white" stroke="#191919" stroke-width="2" stroke-miterlimit="10"/>
<path d="M49.0579 64.2393C56.909 64.2393 63.2735 57.8748 63.2735 50.0237C63.2735 42.1726 56.909 35.8081 49.0579 35.8081C41.2068 35.8081 34.8423 42.1726 34.8423 50.0237C34.8423 57.8748 41.2068 64.2393 49.0579 64.2393Z" fill="#191919" stroke="#191919" stroke-width="1.36141" stroke-miterlimit="10"/>
<path d="M50.9417 62.3398C58.7927 62.3398 65.1573 55.9752 65.1573 48.1242C65.1573 40.2731 58.7927 33.9086 50.9417 33.9086C43.0906 33.9086 36.7261 40.2731 36.7261 48.1242C36.7261 55.9752 43.0906 62.3398 50.9417 62.3398Z" fill="#C1EE83" stroke="#191919" stroke-width="2" stroke-miterlimit="10"/>
<path d="M44.4355 49.5962L47.6016 52.6198L56.0233 44.6255" stroke="#191919" stroke-width="2" stroke-linecap="round" stroke-linejoin="round"/>
</g>
<defs>
<clipPath id="clip0_1231_930">
<rect width="100" height="100" fill="white"/>
</clipPath>
</defs>
</svg>
