<svg width="131" height="138" viewBox="0 0 131 138" fill="none" xmlns="http://www.w3.org/2000/svg">
<g clip-path="url(#clip0_710_728)">
<g clip-path="url(#clip1_710_728)">
<path d="M51.6793 135.985C80.221 135.985 103.359 112.733 103.359 84.0501C103.359 55.3672 80.221 32.1151 51.6793 32.1151C23.1376 32.1151 0 55.3672 0 84.0501C0 112.733 23.1376 135.985 51.6793 135.985Z" fill="#E9FBD5"/>
<mask id="mask0_710_728" style="mask-type:alpha" maskUnits="userSpaceOnUse" x="0" y="1" width="116" height="135">
<path d="M113.456 92.388C114.569 104.062 102.461 95.1366 100.802 100.228C94.036 120.989 74.6002 135.985 51.6793 135.985C23.1376 135.985 0 112.733 0 84.05C0 55.3671 0 1.98499 51.6793 1.98499C88.2181 1.98499 110.319 22.3047 113.456 48.0783C113.827 51.1348 115.759 62.7067 115.949 65.6915C116.422 73.136 113.456 86.3897 113.456 92.388Z" fill="#EFA6B4"/>
</mask>
<g mask="url(#mask0_710_728)">
<path d="M68.4278 33.1002H22.7695C17.2467 33.1002 12.7695 37.5774 12.7695 43.1002V140.279C12.7695 145.802 17.2467 150.279 22.7695 150.279H68.4278C73.9507 150.279 78.4278 145.802 78.4278 140.279V43.1002C78.4278 37.5774 73.9507 33.1002 68.4278 33.1002Z" fill="#292C32" stroke="#292C32" stroke-width="2"/>
<path d="M74.5099 25.4606H28.8516C23.3287 25.4606 18.8516 29.9377 18.8516 35.4606V132.64C18.8516 138.162 23.3287 142.64 28.8516 142.64H74.5099C80.0327 142.64 84.5099 138.162 84.5099 132.64V35.4606C84.5099 29.9377 80.0327 25.4606 74.5099 25.4606Z" fill="white" stroke="#292C32" stroke-width="2"/>
<path d="M104.597 45.8214H39.0566C37.9521 45.8214 37.0566 46.7168 37.0566 47.8214V89.1873C37.0566 90.2919 37.9521 91.1873 39.0566 91.1873H104.597C105.702 91.1873 106.597 90.2919 106.597 89.1873V47.8214C106.597 46.7168 105.702 45.8214 104.597 45.8214Z" fill="#292C32" stroke="#292C32" stroke-width="2"/>
<path d="M108.398 42.0016H42.8574C41.7529 42.0016 40.8574 42.897 40.8574 44.0016V85.3675C40.8574 86.4721 41.7529 87.3675 42.8574 87.3675H108.398C109.503 87.3675 110.398 86.4721 110.398 85.3675V44.0016C110.398 42.897 109.503 42.0016 108.398 42.0016Z" fill="#134F1A" stroke="#292C32" stroke-width="2"/>
<path d="M94.1467 81.601C96.7033 81.601 98.7758 79.5182 98.7758 76.949C98.7758 74.3798 96.7033 72.297 94.1467 72.297C91.5901 72.297 89.5176 74.3798 89.5176 76.949C89.5176 79.5182 91.5901 81.601 94.1467 81.601Z" fill="white"/>
<path d="M100.319 81.601C102.876 81.601 104.948 79.5182 104.948 76.949C104.948 74.3798 102.876 72.297 100.319 72.297C97.7625 72.297 95.6899 74.3798 95.6899 76.949C95.6899 79.5182 97.7625 81.601 100.319 81.601Z" fill="#B6F174"/>
<path d="M68.7042 76.1849H49.803C49.3811 76.1849 49.0391 76.527 49.0391 76.9489C49.0391 77.3708 49.3811 77.7129 49.803 77.7129H68.7042C69.1261 77.7129 69.4682 77.3708 69.4682 76.9489C69.4682 76.527 69.1261 76.1849 68.7042 76.1849Z" fill="white"/>
<path d="M37.6172 25.5419H65.7448V25.9754C65.7448 28.1846 63.9539 29.9754 61.7448 29.9754H41.6172C39.408 29.9754 37.6172 28.1846 37.6172 25.9754V25.5419Z" fill="#292C32"/>
</g>
</g>
</g>
<defs>
<clipPath id="clip0_710_728">
<rect width="131" height="137" fill="white" transform="translate(0 0.984985)"/>
</clipPath>
<clipPath id="clip1_710_728">
<rect width="131" height="137" fill="white" transform="translate(0 0.984985)"/>
</clipPath>
</defs>
</svg>
