<svg width="56" height="57" viewBox="0 0 56 57" fill="none" xmlns="http://www.w3.org/2000/svg">
<g clip-path="url(#clip0_949_4159)">
<g clip-path="url(#clip1_949_4159)">
<g clip-path="url(#clip2_949_4159)">
<path d="M56 1H0V57H56V1Z" fill="#134F1A"/>
<path d="M41.3179 25.7911C41.2313 25.7429 41.1333 25.7189 41.0342 25.7216C40.9352 25.7244 40.8386 25.7537 40.7548 25.8066L30.9446 32.6305C30.1512 33.1231 29.2359 33.3841 28.3019 33.3841C27.3681 33.3841 26.4527 33.1231 25.6593 32.6305L15.8491 25.8066C15.7652 25.7539 15.6687 25.7247 15.5696 25.7219C15.4705 25.7192 15.3725 25.743 15.2859 25.791C15.1991 25.839 15.1268 25.9094 15.0766 25.9948C15.0263 26.0802 14.9999 26.1775 15 26.2766V35.6745C15 36.5564 15.3504 37.4023 15.974 38.026C16.5977 38.6496 17.4435 39 18.3255 39H38.2785C39.1604 39 40.0063 38.6496 40.6299 38.026C41.2536 37.4023 41.604 36.5564 41.604 35.6745V26.2766C41.6043 26.1775 41.5779 26.08 41.5276 25.9946C41.4772 25.9092 41.4049 25.8389 41.3179 25.7911Z" fill="white"/>
<path d="M41.604 22.3255C41.604 21.4435 41.2536 20.5977 40.6299 19.974C40.0063 19.3504 39.1604 19 38.2785 19H18.3255C17.4435 19 16.5977 19.3504 15.974 19.974C15.3504 20.5977 15 21.4435 15 22.3255C15 22.3535 15.007 22.3809 15.0207 22.4054C15.0342 22.4299 15.0538 22.4505 15.0776 22.4651L27.4152 30.872C27.6793 31.0362 27.9842 31.1232 28.2953 31.1232C28.6064 31.1232 28.9112 31.0362 29.1755 30.872L41.5197 22.4651C41.5446 22.4511 41.5653 22.4308 41.5801 22.4063C41.5949 22.3819 41.6031 22.3541 41.604 22.3255Z" fill="white"/>
</g>
</g>
</g>
<defs>
<clipPath id="clip0_949_4159">
<rect y="0.969971" width="56" height="56" rx="28" fill="white"/>
</clipPath>
<clipPath id="clip1_949_4159">
<rect width="56" height="56" fill="white" transform="translate(0 0.969971)"/>
</clipPath>
<clipPath id="clip2_949_4159">
<rect width="56" height="56" fill="white" transform="translate(0 0.969971)"/>
</clipPath>
</defs>
</svg>
