<svg width="32" height="33" viewBox="0 0 32 33" fill="none" xmlns="http://www.w3.org/2000/svg">
<g opacity="0.98104">
<rect width="32" height="32.98" rx="16" fill="#3F9444"/>
<g clip-path="url(#clip0_686_3455)">
<path d="M15.5204 11.6639C14.827 11.6639 14.1817 11.8372 13.5844 12.1839C12.987 12.5306 12.515 12.9999 12.1684 13.5919C11.8217 14.1839 11.6484 14.8319 11.6484 15.5359C11.6484 16.2399 11.8217 16.8879 12.1684 17.4799C12.515 18.0719 12.987 18.5412 13.5844 18.8879C14.1817 19.2346 14.827 19.4079 15.5204 19.4079C16.2137 19.4079 16.859 19.2346 17.4564 18.8879C18.0537 18.5412 18.5257 18.0719 18.8724 17.4799C19.219 16.8879 19.3924 16.2399 19.3924 15.5359C19.3924 14.8319 19.219 14.1839 18.8724 13.5919C18.5257 12.9999 18.0537 12.5306 17.4564 12.1839C16.859 11.8372 16.2137 11.6639 15.5204 11.6639ZM15.5204 18.0479C15.0617 18.0479 14.6404 17.9359 14.2564 17.7119C13.8724 17.4879 13.5684 17.1839 13.3444 16.7999C13.1204 16.4159 13.0084 15.9946 13.0084 15.5359C13.0084 15.0772 13.1204 14.6559 13.3444 14.2719C13.5684 13.8879 13.8724 13.5839 14.2564 13.3599C14.6404 13.1359 15.0617 13.0239 15.5204 13.0239C15.979 13.0239 16.4004 13.1359 16.7844 13.3599C17.1684 13.5839 17.4724 13.8879 17.6964 14.2719C17.9204 14.6559 18.0324 15.0772 18.0324 15.5359C18.0324 15.9946 17.9204 16.4159 17.6964 16.7999C17.4724 17.1839 17.1684 17.4879 16.7844 17.7119C16.4004 17.9359 15.979 18.0479 15.5204 18.0479ZM20.3684 11.1679C20.443 11.3279 20.4644 11.5012 20.4324 11.6879C20.4004 11.8746 20.315 12.0319 20.1764 12.1599C20.0377 12.2879 19.8804 12.3679 19.7044 12.3999C19.5284 12.4319 19.3604 12.4159 19.2004 12.3519C19.0084 12.2559 18.875 12.1439 18.8004 12.0159C18.6937 11.8772 18.6404 11.7066 18.6404 11.5039C18.6404 11.2692 18.7257 11.0559 18.8964 10.8639C19.0884 10.6932 19.3017 10.6079 19.5364 10.6079C19.7177 10.6079 19.8884 10.6559 20.0484 10.7519C20.219 10.8906 20.3257 11.0292 20.3684 11.1679ZM23.0084 12.4319C22.9764 11.7386 22.8644 11.1252 22.6724 10.5919C22.459 10.0799 22.163 9.63456 21.7844 9.25589C21.4057 8.87722 20.9604 8.58922 20.4484 8.39189C19.9364 8.19456 19.3284 8.07989 18.6244 8.04789H18.4804C17.787 8.01589 16.8004 7.99989 15.5204 7.99989C14.2404 7.99989 13.2537 8.01589 12.5604 8.04789H12.4164C11.7017 8.07989 11.091 8.19456 10.5844 8.39189C10.0777 8.58922 9.62971 8.88256 9.24038 9.27189C8.85104 9.66122 8.56038 10.1012 8.36838 10.5919C8.17638 11.1252 8.06438 11.7386 8.03238 12.4319C8.01104 12.8159 7.99504 13.1786 7.98438 13.5199V15.5359V17.5519C7.99504 17.8932 8.01104 18.2612 8.03238 18.6559C8.06438 19.3386 8.17638 19.9466 8.36838 20.4799C8.56038 20.9706 8.85638 21.4159 9.25638 21.8159C9.65638 22.2159 10.1017 22.5066 10.5924 22.6879C11.1257 22.8906 11.7337 23.0026 12.4164 23.0239H12.4324C12.8697 23.0559 13.227 23.0719 13.5044 23.0719C13.899 23.0826 14.571 23.0879 15.5204 23.0879C16.4697 23.0879 17.1417 23.0826 17.5364 23.0719C17.8137 23.0719 18.171 23.0559 18.6084 23.0239H18.6244C19.307 22.9919 19.915 22.8799 20.4484 22.6879C20.939 22.5066 21.387 22.2132 21.7924 21.8079C22.1657 21.4346 22.459 20.9919 22.6724 20.4799C22.8644 19.9466 22.9764 19.3386 23.0084 18.6559V18.4959C23.0404 17.7919 23.0564 16.8026 23.0564 15.5279C23.0564 14.2532 23.0404 13.2692 23.0084 12.5759V12.4319ZM21.6484 18.5919C21.6377 18.9012 21.6057 19.1892 21.5524 19.4559C21.5204 19.5946 21.467 19.7652 21.3924 19.9679V19.9839C21.2537 20.3252 21.067 20.6132 20.8324 20.8479C20.5764 21.1039 20.2884 21.2959 19.9684 21.4239C19.5737 21.5732 19.1044 21.6532 18.5604 21.6639H18.5284C18.1124 21.6959 17.7657 21.7119 17.4884 21.7119C17.1044 21.7226 16.4484 21.7279 15.5204 21.7279C14.5924 21.7279 13.9364 21.7226 13.5524 21.7119C13.275 21.7119 12.9284 21.6959 12.5124 21.6639H12.4804C11.9364 21.6532 11.467 21.5732 11.0724 21.4239C10.7524 21.2959 10.4644 21.1039 10.2084 20.8479C9.95238 20.5919 9.76571 20.3039 9.64838 19.9839C9.48838 19.5999 9.40304 19.1359 9.39238 18.5919V18.5599C9.36038 18.1332 9.34438 17.7812 9.34438 17.5039C9.33371 17.1199 9.32838 16.4666 9.32838 15.5439C9.32838 14.6212 9.33371 13.9679 9.34438 13.5839C9.34438 13.3066 9.36038 12.9546 9.39238 12.5279V12.4959C9.40304 11.9412 9.48838 11.4719 9.64838 11.0879C9.75504 10.7999 9.94171 10.5119 10.2084 10.2239C10.443 9.97856 10.731 9.79189 11.0724 9.66389C11.3924 9.52522 11.8617 9.43456 12.4804 9.39189L12.8644 9.37589C13.5364 9.36522 14.4217 9.35989 15.5204 9.35989C16.619 9.35989 17.5044 9.36522 18.1764 9.37589L18.5604 9.39189C19.147 9.43456 19.6164 9.52522 19.9684 9.66389C20.2884 9.78122 20.5737 9.96789 20.8244 10.2239C21.075 10.4799 21.2644 10.7679 21.3924 11.0879V11.1039C21.467 11.3066 21.5204 11.4826 21.5524 11.6319C21.6057 11.8879 21.6377 12.1759 21.6484 12.4959C21.6697 12.8799 21.6857 13.2372 21.6964 13.5679V15.5359V17.5199C21.6857 17.8506 21.6697 18.2079 21.6484 18.5919Z" fill="white"/>
</g>
</g>
<defs>
<clipPath id="clip0_686_3455">
<rect width="16.02" height="16" fill="white" transform="matrix(1 0 0 -1 7.97656 24)"/>
</clipPath>
</defs>
</svg>
