<svg width="32" height="33" viewBox="0 0 32 33" fill="none" xmlns="http://www.w3.org/2000/svg">
<g opacity="0.98104">
<rect width="32" height="32.98" rx="16" fill="#3F9444"/>
<g clip-path="url(#clip0_686_3461)">
<path d="M16.3617 21.8829L12.6307 21.8179L11.8507 21.8049C11.2181 21.8049 10.7457 21.7962 10.4337 21.7789C9.91374 21.7442 9.44574 21.6879 9.02974 21.6099C8.47507 21.4972 8.04174 21.2502 7.72974 20.8689C7.46974 20.5482 7.27907 20.1192 7.15774 19.5819C7.0884 19.2612 7.0234 18.7672 6.96274 18.0999V18.0479C6.78074 15.9852 6.85874 13.9312 7.19674 11.8859C7.29207 11.3139 7.52824 10.8654 7.90524 10.5404C8.28224 10.2154 8.7654 10.0312 9.35474 9.98789C11.2181 9.85789 13.2374 9.78856 15.4127 9.77989C17.1461 9.77122 19.1611 9.80156 21.4577 9.87089C21.8044 9.87956 22.2247 9.93156 22.7187 10.0269C23.3341 10.1309 23.8107 10.3822 24.1487 10.7809C24.4261 11.1189 24.6297 11.5782 24.7597 12.1589C24.8291 12.5056 24.8941 13.0429 24.9547 13.7709L24.9677 14.0049C25.1064 15.6429 25.0501 17.3156 24.7987 19.0229C24.7207 19.5516 24.6167 19.9762 24.4867 20.2969C24.3307 20.7042 24.1097 21.0206 23.8237 21.2459C23.4944 21.4972 23.0697 21.6402 22.5497 21.6749C21.3017 21.7616 20.2747 21.8222 19.4687 21.8569C18.3507 21.9002 17.3194 21.9132 16.3747 21.8959C16.3747 21.8872 16.3747 21.8829 16.3747 21.8829H16.3617ZM14.1647 18.3989C14.8581 18.0089 15.8894 17.4369 17.2587 16.6829L18.8057 15.8249L14.1647 13.2509V18.3989Z" fill="white"/>
</g>
</g>
<defs>
<clipPath id="clip0_686_3461">
<rect width="19.52" height="13" fill="white" transform="matrix(1 0 0 -1 6.22656 22)"/>
</clipPath>
</defs>
</svg>
