<svg width="32" height="33" viewBox="0 0 32 33" fill="none" xmlns="http://www.w3.org/2000/svg">
<g opacity="0.98104">
<rect width="32" height="32.98" rx="16" fill="#3F9444"/>
<g clip-path="url(#clip0_686_3458)">
<path d="M8.74219 10.1001C8.74219 9.63011 8.90469 9.24511 9.22969 8.94511C9.55469 8.64511 9.97719 8.49511 10.4972 8.49511C11.0172 8.49511 11.4347 8.64511 11.7497 8.94511C12.0647 9.24511 12.2222 9.64011 12.2222 10.1301C12.2222 10.5901 12.0672 10.9601 11.7572 11.2401C11.4372 11.5501 11.0072 11.7051 10.4672 11.7051H10.4522C9.94219 11.7051 9.52969 11.5526 9.21469 11.2476C8.89969 10.9426 8.74219 10.5601 8.74219 10.1001ZM8.92219 22.2351V12.9651H12.0122V22.2351H8.92219ZM13.7222 22.2351H16.8272V17.0601C16.8272 16.7301 16.8622 16.4801 16.9322 16.3101C17.0722 15.9901 17.2697 15.7226 17.5247 15.5076C17.7797 15.2926 18.1122 15.1851 18.5222 15.1851C19.5622 15.1851 20.0822 15.8851 20.0822 17.2851V22.2351H23.1722V16.9251C23.1722 15.5551 22.8472 14.5151 22.1972 13.8051C21.5472 13.0951 20.6872 12.7401 19.6172 12.7401C18.4272 12.7401 17.4972 13.2551 16.8272 14.2851V14.3151H16.8122L16.8272 14.2851V12.9651H13.7222C13.7422 13.1651 13.7522 14.0851 13.7522 15.7251C13.7522 18.2051 13.7422 20.3751 13.7222 22.2351Z" fill="white"/>
</g>
</g>
<defs>
<clipPath id="clip0_686_3458">
<rect width="15.02" height="15" fill="white" transform="matrix(1 0 0 -1 8.47656 23)"/>
</clipPath>
</defs>
</svg>
