<svg width="123" height="25" viewBox="0 0 123 25" fill="none" xmlns="http://www.w3.org/2000/svg">
<g opacity="0.7">
<path d="M8.09655 24.1766H3.51418V12.6312H0.392578V8.87231H3.51406V6.19756C3.51406 3.02797 4.89469 0.754761 9.46466 0.754761C10.4312 0.754761 11.9487 0.951662 11.9487 0.951662V4.44204H10.3548C8.73087 4.44204 8.0968 4.9413 8.0968 6.32157V8.87231H11.8879L11.5503 12.6312H8.09667L8.09655 24.1766ZM18.6109 8.57192C18.5442 8.57192 18.4755 8.57438 18.4075 8.5761C14.1584 8.5761 12.2144 11.8064 12.2144 16.3919C12.2144 22.1684 14.7361 24.4803 18.4407 24.4803C20.5602 24.4803 21.9528 23.5787 22.7992 21.896V24.1782H27.1577V8.87391H22.7992V11.2275C22.1081 9.71325 20.6766 8.58986 18.6109 8.57192ZM19.7192 12.1883C21.5038 12.1883 22.5749 13.4464 22.5749 15.5864L22.579 17.7721C22.579 19.2144 21.6943 20.9018 19.7192 20.9018C16.6826 20.9018 16.7637 17.5879 16.7637 16.4842C16.7637 12.7715 18.3816 12.1883 19.7192 12.1883ZM28.9178 16.5269C28.9178 14.6671 28.8298 8.58187 36.6741 8.58187C39.8229 8.58187 41.1378 9.59379 41.1378 9.59379L40.081 12.9066C40.081 12.9066 38.7679 12.1757 37.0568 12.1757C34.8653 12.1757 33.4669 13.4598 33.4669 15.719L33.4693 17.3389C33.4693 19.5097 34.8186 20.9588 37.0613 20.9588C38.6201 20.9588 40.0568 20.2211 40.0568 20.2211L41.1109 23.4647C41.1109 23.4647 39.9087 24.483 36.6961 24.483C29.2271 24.483 28.918 19.0234 28.918 16.5269H28.9178ZM66.6932 8.5761C70.9424 8.5761 72.9171 11.8064 72.9171 16.3919C72.9171 22.1684 70.3953 24.4803 66.6907 24.4803C64.5711 24.4803 63.0043 23.5788 62.1579 21.896V24.1782L57.8543 24.1765V1.2201L62.4236 0.817322V11.0201C63.0831 9.23514 65.2504 8.5761 66.6933 8.5761H66.6932ZM65.4122 12.1883C63.6276 12.1883 62.4236 13.4464 62.4236 15.5864L62.4194 17.7721C62.4167 19.2144 63.2531 20.9018 65.4122 20.9018C68.4488 20.9018 68.3677 17.5879 68.3677 16.4842C68.3677 12.7715 66.7499 12.1883 65.4122 12.1883ZM49.066 8.58876C44.2466 8.58876 41.7023 11.2445 41.7023 15.9639V16.8408C41.7023 22.9662 45.2753 24.5433 49.5351 24.5433C53.6755 24.5433 55.5496 23.3728 55.5496 23.3728L54.6946 20.2558C54.6946 20.2558 52.49 21.2038 50.0829 21.2038C47.5875 21.2038 46.5143 20.561 46.2392 18.1372H55.9149V15.6366C55.9149 10.5172 53.0594 8.58863 49.0659 8.58863L49.066 8.58876ZM49.1821 11.7099C50.8504 11.7099 51.9314 12.7438 51.872 15.1417H46.2476C46.3451 12.618 47.5109 11.71 49.1821 11.71V11.7099ZM82.0282 8.56774C77.079 8.56774 74.4735 11.3865 74.4735 16.438C74.4735 23.3689 78.9648 24.4845 82.0365 24.4845C86.5331 24.4845 89.5247 22.0377 89.5247 16.5009C89.5247 10.7381 86.161 8.56774 82.0282 8.56774V8.56774ZM81.9659 12.2008C84.1421 12.2008 85.0045 13.8469 85.0045 15.7207V17.3317C85.0045 19.6016 83.7978 20.9145 81.9577 20.9145C80.2366 20.9145 79.0271 19.6864 79.0271 17.3317V15.7207C79.0271 13.2094 80.4664 12.2008 81.9659 12.2008V12.2008ZM98.6277 8.56774C93.6785 8.56774 91.073 11.3865 91.073 16.438C91.073 23.3689 95.5643 24.4845 98.6359 24.4845C103.132 24.4845 106.124 22.0377 106.124 16.5009C106.124 10.7381 102.76 8.56774 98.6277 8.56774V8.56774ZM98.5654 12.2008C100.742 12.2008 101.604 13.8469 101.604 15.7207V17.3317C101.604 19.6016 100.397 20.9145 98.5571 20.9145C96.8361 20.9145 95.6266 19.6864 95.6266 17.3317V15.7207C95.6266 13.2094 97.0658 12.2008 98.5654 12.2008V12.2008ZM107.851 24.1766V1.2201L112.434 0.817322V16.2042L116.98 8.87231H121.82L117.077 16.466L122.002 24.1766H117.149L112.434 16.6897V24.1766H107.851Z" fill="white"/>
</g>
</svg>
