<svg width="22" height="22" viewBox="0 0 22 22" fill="none" xmlns="http://www.w3.org/2000/svg">
<path d="M1.10781 1.16592C1.10781 0.843256 1.22148 0.568254 1.44881 0.340921C1.67615 0.113588 1.95115 -7.82013e-05 2.27381 -7.82013e-05H20.5118C20.8345 -7.82013e-05 21.1058 0.113588 21.3258 0.340921C21.5458 0.568254 21.6558 0.843256 21.6558 1.16592V19.4039C21.6558 19.7266 21.5458 19.9979 21.3258 20.2179C21.1058 20.4379 20.8345 20.5479 20.5118 20.5479C20.1891 20.5479 19.9141 20.4379 19.6868 20.2179C19.4595 19.9979 19.3458 19.7266 19.3458 19.4039V3.95992L1.98781 21.3179C1.75315 21.5526 1.47815 21.6699 1.16281 21.6699C0.847479 21.6699 0.576146 21.5563 0.348812 21.3289C0.121479 21.1016 0.0078125 20.8266 0.0078125 20.5039C0.0078125 20.1813 0.117812 19.9099 0.337812 19.6899L17.7178 2.30992H2.27381C1.95115 2.30992 1.67615 2.19992 1.44881 1.97992C1.22148 1.75992 1.10781 1.48859 1.10781 1.16592Z" fill="#134F1A"/>
</svg>
