<svg width="100" height="100" viewBox="0 0 100 100" fill="none" xmlns="http://www.w3.org/2000/svg">
<rect width="100" height="100" rx="50" fill="#3F9444"/>
<path d="M63.2508 62.3426L66.4917 59.1016L69.7325 62.3426C71.5224 64.1325 71.5224 67.0344 69.7325 68.8243C67.9426 70.6142 65.0407 70.6142 63.2508 68.8243C61.4609 67.0344 61.4609 64.1325 63.2508 62.3426ZM44.2774 29.9795L65.0192 50.7213C65.7351 51.4372 65.7351 52.598 65.0192 53.314L49.4628 68.8703C48.7469 69.5863 47.586 69.5863 46.8701 68.8703L31.3138 53.314C30.5979 52.598 30.5979 51.4372 31.3138 50.7213L45.5738 36.4613L41.6847 32.5722L44.2774 29.9795ZM48.1665 39.054L35.2029 52.0176H61.1302L48.1665 39.054Z" fill="white"/>
</svg>
