<svg width="100" height="100" viewBox="0 0 100 100" fill="none" xmlns="http://www.w3.org/2000/svg">
<rect width="100" height="100" rx="50" fill="#3F9444"/>
<path d="M37.7704 33.9977C40.031 33.194 42.6523 33.6969 44.4618 35.5063C46.2717 37.3163 46.7744 39.9385 45.9697 42.1996L65.8517 62.0818L61.9626 65.9708L42.0786 46.0895C39.8179 46.8932 37.1967 46.3903 35.3872 44.5809C33.5773 42.7709 33.0746 40.1487 33.8793 37.8876L37.9799 41.9882C39.0539 43.0621 40.7951 43.0621 41.869 41.9882C42.943 40.9142 42.943 39.173 41.869 38.0991L37.7704 33.9977ZM56.7772 37.4509L62.6109 34.21L65.2036 36.8027L61.9626 42.6363L58.7217 43.2845L54.8326 47.1737L52.2399 44.5809L56.129 40.6918L56.7772 37.4509ZM43.8136 51.7108L47.7026 55.6L38.6281 64.6745C37.5542 65.7485 35.813 65.7485 34.739 64.6745C33.7283 63.6638 33.6688 62.0618 34.5607 60.9816L34.739 60.7854L43.8136 51.7108Z" fill="white"/>
</svg>
