<svg width="131" height="138" viewBox="0 0 131 138" fill="none" xmlns="http://www.w3.org/2000/svg">
<g clip-path="url(#clip0_710_812)">
<g clip-path="url(#clip1_710_812)">
<path d="M67.4979 121.945C96.4334 121.945 119.89 98.4399 119.89 69.4449C119.89 40.45 96.4334 16.9449 67.4979 16.9449C38.5623 16.9449 15.1055 40.45 15.1055 69.4449C15.1055 98.4399 38.5623 121.945 67.4979 121.945Z" fill="#E9FBD5"/>
<path d="M71.2371 96.7649L71.4426 96.3426L71.2489 95.9149C69.5875 92.2443 68.6617 88.1671 68.6617 83.8706C68.6617 67.7483 81.7041 54.6823 97.7883 54.6823C113.873 54.6823 126.915 67.7483 126.915 83.8706C126.915 99.9928 113.873 113.059 97.7883 113.059C89.8574 113.059 82.6683 109.884 77.4147 104.73L77.0934 104.415L76.6445 104.446L67.1753 105.11L71.2371 96.7649Z" fill="#292C32" stroke="#292C32" stroke-width="2"/>
<path d="M74.3191 93.6757L74.5246 93.2535L74.331 92.8257C72.6695 89.1551 71.7438 85.078 71.7438 80.7815C71.7438 64.6592 84.7861 51.5931 100.87 51.5931C116.955 51.5931 129.997 64.6592 129.997 80.7815C129.997 96.9037 116.955 109.97 100.87 109.97C92.9395 109.97 85.7503 106.795 80.4967 101.641L80.1754 101.326L79.7265 101.357L70.2573 102.021L74.3191 93.6757Z" fill="white" stroke="#292C32" stroke-width="2"/>
<path d="M88.7801 84.9073C90.6283 84.9073 92.1266 83.4059 92.1266 81.5539C92.1266 79.7019 90.6283 78.2006 88.7801 78.2006C86.9319 78.2006 85.4336 79.7019 85.4336 81.5539C85.4336 83.4059 86.9319 84.9073 88.7801 84.9073Z" fill="#134F1A"/>
<path d="M101.819 84.9073C103.667 84.9073 105.166 83.4059 105.166 81.5539C105.166 79.7019 103.667 78.2006 101.819 78.2006C99.9709 78.2006 98.4727 79.7019 98.4727 81.5539C98.4727 83.4059 99.9709 84.9073 101.819 84.9073Z" fill="#134F1A"/>
<path d="M113.704 84.9073C115.552 84.9073 117.05 83.4059 117.05 81.5539C117.05 79.7019 115.552 78.2006 113.704 78.2006C111.856 78.2006 110.357 79.7019 110.357 81.5539C110.357 83.4059 111.856 84.9073 113.704 84.9073Z" fill="#134F1A"/>
<path d="M57.5838 65.7266L57.3902 66.1544L57.5957 66.5766L61.6574 74.9215L52.1883 74.258L51.7393 74.2265L51.4181 74.5417C46.1645 79.6955 38.9753 82.8707 31.0445 82.8707C14.9603 82.8707 1.91797 69.8046 1.91797 53.6823C1.91797 37.5601 14.9603 24.494 31.0445 24.494C47.1287 24.494 60.171 37.5601 60.171 53.6823C60.171 57.9789 59.2453 62.056 57.5838 65.7266Z" fill="#292C32" stroke="#292C32" stroke-width="2"/>
<path d="M60.6678 62.6375L60.4742 63.0652L60.6797 63.4875L64.7414 71.8324L55.2723 71.1689L54.8233 71.1374L54.5021 71.4526C49.2484 76.6064 42.0593 79.7816 34.1285 79.7816C18.0443 79.7816 5.00195 66.7154 5.00195 50.5932C5.00195 34.471 18.0443 21.4049 34.1285 21.4049C50.2127 21.4049 63.255 34.471 63.255 50.5932C63.255 54.8898 62.3293 58.9669 60.6678 62.6375Z" fill="#B6F174" stroke="#292C32" stroke-width="2"/>
<path d="M32.6195 66.1106C34.4783 66.1106 35.9851 64.6006 35.9851 62.7381C35.9851 60.8755 34.4783 59.3656 32.6195 59.3656C30.7607 59.3656 29.2539 60.8755 29.2539 62.7381C29.2539 64.6006 30.7607 66.1106 32.6195 66.1106Z" fill="white"/>
<path d="M26.3245 47.6627C27.1596 47.6627 27.9604 47.3545 28.5509 46.8059C29.1414 46.2573 29.4732 45.5133 29.4732 44.7375C29.4752 44.2106 29.6303 43.6939 29.9223 43.2421C30.2142 42.7904 30.6321 42.4202 31.1318 42.1709C31.6314 41.9215 32.1943 41.8021 32.761 41.8254C33.3277 41.8487 33.877 42.0138 34.351 42.3032C34.8251 42.5925 35.2061 42.9955 35.454 43.4695C35.7019 43.9434 35.8073 44.4708 35.7592 44.9958C35.7111 45.5209 35.5112 46.0241 35.1807 46.4523C34.8501 46.8805 34.4012 47.2179 33.8814 47.4286C32.5719 47.9605 31.4578 48.8355 30.6754 49.9464C29.8929 51.0574 29.476 52.3561 29.4757 53.6838V54.9825C29.4757 55.7583 29.8074 56.5023 30.3979 57.0509C30.9884 57.5995 31.7893 57.9077 32.6244 57.9077C33.4595 57.9077 34.2604 57.5995 34.8509 57.0509C35.4414 56.5023 35.7731 55.7583 35.7731 54.9825V53.6838C35.7726 53.4936 35.832 53.3075 35.9439 53.1483C36.0558 52.989 36.2153 52.8636 36.4028 52.7875C37.9631 52.1544 39.3102 51.1412 40.3016 49.8552C41.293 48.5693 41.8918 47.0583 42.0346 45.4821C42.1775 43.9059 41.8592 42.3231 41.1132 40.9012C40.3673 39.4793 39.2216 38.2712 37.7972 37.4046C36.3728 36.538 34.7228 36.0451 33.0217 35.9782C31.3206 35.9112 29.6316 36.2726 28.1334 37.0242C26.6353 37.7758 25.3836 38.8896 24.5109 40.2478C23.6382 41.606 23.1769 43.1581 23.1758 44.7399C23.1764 45.5152 23.5085 46.2587 24.0989 46.8067C24.6893 47.3548 25.4898 47.6627 26.3245 47.6627Z" fill="white"/>
</g>
</g>
<defs>
<clipPath id="clip0_710_812">
<rect width="131" height="137" fill="white" transform="translate(0 0.944946)"/>
</clipPath>
<clipPath id="clip1_710_812">
<rect width="131" height="137" fill="white" transform="translate(0 0.944946)"/>
</clipPath>
</defs>
</svg>
