<svg width="100" height="100" viewBox="0 0 100 100" fill="none" xmlns="http://www.w3.org/2000/svg">
<g clip-path="url(#clip0_1231_938)">
<path d="M49.9921 99.9842C77.602 99.9842 99.9842 77.602 99.9842 49.9921C99.9842 22.3822 77.602 0 49.9921 0C22.3822 0 0 22.3822 0 49.9921C0 77.602 22.3822 99.9842 49.9921 99.9842Z" fill="#E9FBD5"/>
<path d="M47.7602 77.2519C61.5738 77.2519 72.772 66.0537 72.772 52.24C72.772 38.4263 61.5738 27.2281 47.7602 27.2281C33.9465 27.2281 22.7483 38.4263 22.7483 52.24C22.7483 66.0537 33.9465 77.2519 47.7602 77.2519Z" fill="#191919" stroke="#191919" stroke-width="1.58303" stroke-miterlimit="10"/>
<path d="M49.9921 75.004C63.8058 75.004 75.004 63.8058 75.004 49.9922C75.004 36.1785 63.8058 24.9803 49.9921 24.9803C36.1784 24.9803 24.9802 36.1785 24.9802 49.9922C24.9802 63.8058 36.1784 75.004 49.9921 75.004Z" fill="white" stroke="#191919" stroke-width="2" stroke-miterlimit="10"/>
<path d="M34.1143 58.0497H61.4057C62.3872 58.0497 63.1946 58.8571 63.1946 59.8386V72.6928C63.1946 77.8218 59.0312 81.9693 53.918 81.9693H41.6179C36.4888 81.9693 32.3413 77.806 32.3413 72.6928V59.8386C32.3413 58.8571 33.1487 58.0497 34.1301 58.0497H34.1143Z" fill="#191919" stroke="#191919" stroke-width="1.58303" stroke-miterlimit="10"/>
<path d="M43.1691 58.0497V50.2295C43.1691 47.3484 45.4962 45.0213 48.3773 45.0213C51.2584 45.0213 53.5854 47.3484 53.5854 50.2295V51.4484H59.8226V50.1187C59.8226 43.8024 54.7094 38.6892 48.3931 38.6892C42.0768 38.6892 36.9636 43.8024 36.9636 50.1187V58.0497H43.1691Z" fill="#191919" stroke="#191919" stroke-width="1.58303" stroke-miterlimit="10"/>
<path d="M36.3621 55.8176H63.6535C64.635 55.8176 65.4424 56.625 65.4424 57.6065V70.4607C65.4424 75.5897 61.279 79.7372 56.1658 79.7372H43.8657C38.7366 79.7372 34.5891 75.5738 34.5891 70.4607V57.6065C34.5891 56.625 35.3965 55.8176 36.3779 55.8176H36.3621Z" fill="#C1EE83" stroke="#191919" stroke-width="2" stroke-miterlimit="10"/>
<path d="M45.4174 55.8177V47.9975C45.4174 45.1164 47.7444 42.7893 50.6256 42.7893C53.5067 42.7893 55.8337 45.1164 55.8337 47.9975V49.2164H62.0709V47.8867C62.0709 41.5704 56.9577 36.4572 50.6414 36.4572C44.3251 36.4572 39.2119 41.5704 39.2119 47.8867V55.8177H45.4174Z" fill="#C1EE83" stroke="#191919" stroke-width="2" stroke-miterlimit="10"/>
<path d="M53.7756 73.1834L52.0659 68.0069C52.9841 67.3579 53.6015 66.2814 53.6015 65.0625C53.6015 63.0679 51.9868 61.4532 49.9922 61.4532C47.9976 61.4532 46.3829 63.0679 46.3829 65.0625C46.3829 66.2814 46.9844 67.3579 47.9184 68.0069L46.2087 73.1834H53.7756Z" fill="white" stroke="#191919" stroke-width="2" stroke-linecap="round" stroke-linejoin="round"/>
</g>
<defs>
<clipPath id="clip0_1231_938">
<rect width="100" height="100" fill="white"/>
</clipPath>
</defs>
</svg>
