<svg width="131" height="138" viewBox="0 0 131 138" fill="none" xmlns="http://www.w3.org/2000/svg">
<g clip-path="url(#clip0_710_833)">
<g clip-path="url(#clip1_710_833)">
<path d="M60 128.895C93.1371 128.895 120 102.256 120 69.3949C120 36.534 93.1371 9.8949 60 9.8949C26.8629 9.8949 0 36.534 0 69.3949C0 102.256 26.8629 128.895 60 128.895Z" fill="#E9FBD5"/>
<path d="M103.676 32.1492H14.1465C11.3851 32.1492 9.14648 34.3877 9.14648 37.1492V106.72C9.14648 109.481 11.3851 111.72 14.1465 111.72H103.676C106.438 111.72 108.676 109.481 108.676 106.72V37.1492C108.676 34.3877 106.438 32.1492 103.676 32.1492Z" fill="#292C32" stroke="#292C32" stroke-width="2"/>
<path d="M108.973 27.7729H19.4434C16.6819 27.7729 14.4434 30.0115 14.4434 32.7729V102.344C14.4434 105.105 16.6819 107.344 19.4434 107.344H108.973C111.734 107.344 113.973 105.105 113.973 102.344V32.7729C113.973 30.0115 111.734 27.7729 108.973 27.7729Z" fill="white" stroke="#292C32" stroke-width="2"/>
<path d="M37.9071 79.1918H25.1992C24.6469 79.1918 24.1992 79.6395 24.1992 80.1918V93.7976C24.1992 94.3499 24.6469 94.7976 25.1992 94.7976H37.9071C38.4594 94.7976 38.9071 94.3499 38.9071 93.7976V80.1918C38.9071 79.6395 38.4594 79.1918 37.9071 79.1918Z" fill="#B6F174"/>
<path d="M37.9071 68.7094H25.1992C24.6469 68.7094 24.1992 69.1571 24.1992 69.7094V75.5122C24.1992 76.0645 24.6469 76.5122 25.1992 76.5122H37.9071C38.4594 76.5122 38.9071 76.0645 38.9071 75.5122V69.7094C38.9071 69.1571 38.4594 68.7094 37.9071 68.7094Z" fill="#134F1A"/>
<path d="M59.6767 53.0552H46.9688C46.4165 53.0552 45.9688 53.5029 45.9688 54.0552V64.0381C45.9688 64.5904 46.4165 65.0381 46.9688 65.0381H59.6767C60.2289 65.0381 60.6767 64.5904 60.6767 64.0381V54.0552C60.6767 53.5029 60.2289 53.0552 59.6767 53.0552Z" fill="#134F1A"/>
<path d="M59.6767 67.6467H46.9688C46.4165 67.6467 45.9688 68.0944 45.9688 68.6467V93.7975C45.9688 94.3498 46.4165 94.7975 46.9688 94.7975H59.6767C60.2289 94.7975 60.6767 94.3498 60.6767 93.7975V68.6467C60.6767 68.0944 60.2289 67.6467 59.6767 67.6467Z" fill="#B6F174"/>
<path d="M81.4442 40.3187H68.7363C68.184 40.3187 67.7363 40.7664 67.7363 41.3187V77.3509C67.7363 77.9032 68.184 78.3509 68.7363 78.3509H81.4442C81.9965 78.3509 82.4442 77.9032 82.4442 77.3509V41.3187C82.4442 40.7664 81.9965 40.3187 81.4442 40.3187Z" fill="#134F1A"/>
<path d="M81.4442 81.3224H68.7363C68.184 81.3224 67.7363 81.7701 67.7363 82.3224V93.7976C67.7363 94.3499 68.184 94.7976 68.7363 94.7976H81.4442C81.9965 94.7976 82.4442 94.3499 82.4442 93.7976V82.3224C82.4442 81.7701 81.9965 81.3224 81.4442 81.3224Z" fill="#B6F174"/>
<path d="M103.214 58.9971H90.5059C89.9536 58.9971 89.5059 59.4448 89.5059 59.9971V67.7094C89.5059 68.2616 89.9536 68.7094 90.5059 68.7094H103.214C103.766 68.7094 104.214 68.2616 104.214 67.7094V59.9971C104.214 59.4448 103.766 58.9971 103.214 58.9971Z" fill="#134F1A"/>
<path d="M103.214 71.8397H90.5059C89.9536 71.8397 89.5059 72.2874 89.5059 72.8397V93.7975C89.5059 94.3498 89.9536 94.7975 90.5059 94.7975H103.214C103.766 94.7975 104.214 94.3498 104.214 93.7975V72.8397C104.214 72.2874 103.766 71.8397 103.214 71.8397Z" fill="#B6F174"/>
</g>
</g>
<defs>
<clipPath id="clip0_710_833">
<rect width="131" height="137" fill="white" transform="translate(0 0.894897)"/>
</clipPath>
<clipPath id="clip1_710_833">
<rect width="131" height="137" fill="white" transform="translate(0 0.894897)"/>
</clipPath>
</defs>
</svg>
