<svg width="100" height="100" viewBox="0 0 100 100" fill="none" xmlns="http://www.w3.org/2000/svg">
<g clip-path="url(#clip0_1231_906)">
<path d="M49.9921 99.9842C77.602 99.9842 99.9842 77.602 99.9842 49.9921C99.9842 22.3822 77.602 0 49.9921 0C22.3822 0 0 22.3822 0 49.9921C0 77.602 22.3822 99.9842 49.9921 99.9842Z" fill="#E9FBD5"/>
<path d="M47.7602 77.2518C61.5738 77.2518 72.772 66.0536 72.772 52.2399C72.772 38.4262 61.5738 27.228 47.7602 27.228C33.9465 27.228 22.7483 38.4262 22.7483 52.2399C22.7483 66.0536 33.9465 77.2518 47.7602 77.2518Z" fill="#191919" stroke="#191919" stroke-width="1.58303" stroke-miterlimit="10"/>
<path d="M49.9921 75.0041C63.8058 75.0041 75.004 63.8059 75.004 49.9922C75.004 36.1785 63.8058 24.9803 49.9921 24.9803C36.1784 24.9803 24.9802 36.1785 24.9802 49.9922C24.9802 63.8059 36.1784 75.0041 49.9921 75.0041Z" fill="white" stroke="#191919" stroke-width="2" stroke-miterlimit="10"/>
<path d="M43.9448 79.2463V82.6498C43.9448 83.7421 44.8313 84.6128 45.9078 84.6128H48.5831H51.2584C52.3507 84.6128 53.2214 83.7263 53.2214 82.6498V79.2463" fill="#191919"/>
<path d="M43.9448 79.2463V82.6498C43.9448 83.7421 44.8313 84.6128 45.9078 84.6128H48.5831H51.2584C52.3507 84.6128 53.2214 83.7263 53.2214 82.6498V79.2463" stroke="#191919" stroke-width="1.58303" stroke-miterlimit="10"/>
<path d="M48.5831 79.2464H43.2958C42.3777 79.2464 41.6495 78.4865 41.6811 77.5684C42.2827 61.8489 38.1193 63.6219 34.6366 56.6407C29.9825 47.3008 36.5996 35.2856 48.5673 35.2856C60.5508 35.2856 66.8355 47.1425 62.498 56.6407C58.7937 64.7617 54.8519 61.8489 55.4535 77.5684C55.4851 78.4865 54.7569 79.2464 53.8388 79.2464H48.5515H48.5831Z" fill="#191919" stroke="#191919" stroke-width="1.58303" stroke-miterlimit="10"/>
<path d="M41.5703 71.4895H55.6118" stroke="#191919" stroke-width="1.58303" stroke-miterlimit="10"/>
<path d="M45.48 77.7268V81.1303C45.48 82.2226 46.3665 83.0933 47.4429 83.0933H50.1183H52.7936C53.8859 83.0933 54.7565 82.2068 54.7565 81.1303V77.7268" fill="white"/>
<path d="M45.48 77.7268V81.1303C45.48 82.2226 46.3665 83.0933 47.4429 83.0933H50.1183H52.7936C53.8859 83.0933 54.7565 82.2068 54.7565 81.1303V77.7268" stroke="#191919" stroke-width="2" stroke-miterlimit="10"/>
<path d="M57.0049 76.0328C57.0365 76.951 56.3083 77.7108 55.3902 77.7108H44.8314C43.9132 77.7108 43.185 76.951 43.2167 76.0328C43.2958 73.6266 43.2958 71.632 43.1692 69.954H57.0207C56.9099 71.6003 56.8941 73.5949 56.989 76.0328H57.0049Z" fill="white" stroke="#191919" stroke-width="2" stroke-miterlimit="10"/>
<path d="M64.0493 55.1052C60.9149 61.9597 57.6064 60.9466 57.0365 69.954H43.185C42.5518 60.6458 39.1324 61.0099 36.1722 55.1052C31.5181 45.7495 38.1193 33.7501 50.1187 33.7501C62.118 33.7501 68.3868 45.607 64.0493 55.1052Z" fill="#C1EE83" stroke="#191919" stroke-width="2" stroke-miterlimit="10"/>
<path d="M57.1374 69.954H57.0369" stroke="#191919" stroke-width="1.58303" stroke-miterlimit="10"/>
<path d="M43.1912 69.954H43.1057" stroke="#191919" stroke-width="1.58303" stroke-miterlimit="10"/>
<path d="M70.5714 21.9408L67.5161 26.0092" stroke="#191919" stroke-width="2" stroke-miterlimit="10" stroke-linecap="round"/>
<path d="M82.5865 38.072L77.8374 39.7025" stroke="#191919" stroke-width="2" stroke-miterlimit="10" stroke-linecap="round"/>
<path d="M83.2198 58.6671L79.1831 57.5273" stroke="#191919" stroke-width="2" stroke-miterlimit="10" stroke-linecap="round"/>
<path d="M32.484 26.025L29.4287 21.9408" stroke="#191919" stroke-width="2" stroke-miterlimit="10" stroke-linecap="round"/>
<path d="M21.1018 39.4015L16.7168 37.9293" stroke="#191919" stroke-width="2" stroke-miterlimit="10" stroke-linecap="round"/>
<path d="M18.5688 58.4614L14.8645 59.7595" stroke="#191919" stroke-width="2" stroke-miterlimit="10" stroke-linecap="round"/>
<path d="M49.9922 20.7061V15.9886" stroke="#191919" stroke-width="2" stroke-miterlimit="10" stroke-linecap="round"/>
<path d="M50.7993 42.0295L46.731 51.686L53.4905 49.6914L49.3588 59.4587" stroke="#191919" stroke-width="2" stroke-linecap="round" stroke-linejoin="round"/>
</g>
<defs>
<clipPath id="clip0_1231_906">
<rect width="100" height="100" fill="white"/>
</clipPath>
</defs>
</svg>
