<svg width="101" height="101" viewBox="0 0 101 101" fill="none" xmlns="http://www.w3.org/2000/svg">
<g clip-path="url(#clip0_1231_1103)">
<path d="M50.492 100.984C78.378 100.984 100.984 78.378 100.984 50.492C100.984 22.606 78.378 0 50.492 0C22.606 0 0 22.606 0 50.492C0 78.378 22.606 100.984 50.492 100.984Z" fill="#E9FBD5"/>
<path d="M48.2376 78.0244C62.1894 78.0244 73.4996 66.7142 73.4996 52.7624C73.4996 38.8106 62.1894 27.5004 48.2376 27.5004C34.2858 27.5004 22.9756 38.8106 22.9756 52.7624C22.9756 66.7142 34.2858 78.0244 48.2376 78.0244Z" fill="#191919" stroke="#191919" stroke-miterlimit="10"/>
<path d="M50.492 75.754C64.4438 75.754 75.754 64.4438 75.754 50.492C75.754 36.5402 64.4438 25.23 50.492 25.23C36.5402 25.23 25.23 36.5402 25.23 50.492C25.23 64.4438 36.5402 75.754 50.492 75.754Z" fill="white" stroke="#191919" stroke-width="2" stroke-miterlimit="10"/>
<path d="M23.5991 52.1388C23.5991 53.7377 23.743 55.2886 24.0307 56.7915L16.9638 56.6156C15.8925 56.5997 15.1091 55.6563 15.285 54.6011L17.6353 40.4032C17.7792 39.5078 18.5946 38.8843 19.49 38.9642L26.8767 39.6038H26.9407C24.8142 43.2971 23.5991 47.5821 23.5991 52.1388Z" fill="#191919" stroke="#191919" stroke-miterlimit="10"/>
<path d="M67.7596 59.5256L47.0223 44.5922C43.313 48.3975 39.5876 49.6766 35.8303 47.1824C35.3347 46.8466 35.2387 46.1431 35.6544 45.6955L43.265 37.6532C43.265 37.6532 43.297 37.6052 43.329 37.6052C43.4569 37.6212 43.5848 37.6692 43.6807 37.7651L67.7596 59.5256Z" fill="#191919" stroke="#191919" stroke-miterlimit="10"/>
<path d="M83.0127 54.9688C83.1886 55.9441 82.5011 56.8715 81.5258 57.0154L74.3949 57.9107H74.3789L73.3716 58.1506C73.8513 56.2159 74.1071 54.2174 74.1071 52.1389C74.1071 47.9179 73.0678 43.9367 71.2451 40.4512L78.2801 39.2041C79.2074 39.0282 80.1028 39.6677 80.2787 40.5951L83.0127 54.9688Z" fill="#191919" stroke="#191919" stroke-miterlimit="10"/>
<path d="M74.4429 58.2305L74.3789 57.9108" stroke="#191919" stroke-miterlimit="10"/>
<path d="M74.107 52.1389C74.107 54.2174 73.8512 56.2159 73.3716 58.1506L67.7596 59.5256L47.0223 44.5922C43.313 48.3975 39.5876 49.6766 35.8303 47.1824C35.3347 46.8466 35.2387 46.1431 35.6544 45.6954L43.265 37.6532C43.345 37.5572 43.4729 37.5093 43.6008 37.5093H55.88C57.5908 37.5093 59.2856 37.8131 60.9004 38.4206L66.3526 40.4672C67.3279 40.8509 68.3991 40.9628 69.4384 40.771L70.9093 40.5151L71.2451 40.4512C73.0678 43.9367 74.107 47.9179 74.107 52.1389Z" fill="#191919" stroke="#191919" stroke-miterlimit="10"/>
<path d="M67.7596 59.5256L57.479 66.4007C55.5124 67.44 53.7696 67.5359 51.835 66.6405L30.4263 58.4863L25.2779 56.8235H24.6704L24.0308 56.7915C23.743 55.2886 23.5991 53.7377 23.5991 52.1389C23.5991 47.5821 24.8143 43.2972 26.9407 39.6038L29.4989 39.8436C31.6414 40.0355 33.8158 39.8756 35.8944 39.348L43.0253 37.5892C43.1372 37.5732 43.2331 37.5732 43.3291 37.6052C43.2971 37.6052 43.2811 37.6372 43.2651 37.6532L35.6545 45.6955C35.2388 46.1431 35.3348 46.8466 35.8304 47.1824C39.5877 49.6766 43.3131 48.3975 47.0224 44.5922L67.7596 59.5256Z" fill="#191919" stroke="#191919" stroke-miterlimit="10"/>
<path d="M39.8308 56.0923L39.331 55.6682C38.4017 54.8798 37.0094 54.9941 36.221 55.9233L32.9318 59.8004C32.1435 60.7297 32.2578 62.122 33.187 62.9103L33.6869 63.3344C34.6161 64.1227 36.0084 64.0085 36.7968 63.0793L40.086 59.2022C40.8743 58.2729 40.7601 56.8806 39.8308 56.0923Z" fill="#191919" stroke="#191919" stroke-miterlimit="10"/>
<path d="M44.7591 58.1032L44.2592 57.6792C43.33 56.8908 41.9376 57.0051 41.1493 57.9343L36.8981 62.9453C36.1098 63.8745 36.224 65.2669 37.1533 66.0552L37.6532 66.4793C38.5824 67.2676 39.9747 67.1534 40.7631 66.2241L45.0142 61.2131C45.8025 60.2839 45.6883 58.8916 44.7591 58.1032Z" fill="#191919" stroke="#191919" stroke-miterlimit="10"/>
<path d="M49.1179 60.1133L48.6911 59.7513C47.9101 59.0886 46.7397 59.1847 46.077 59.9657L42.2913 64.4281C41.6287 65.2092 41.7247 66.3796 42.5058 67.0422L42.9325 67.4042C43.7136 68.0669 44.884 67.9709 45.5467 67.1898L49.3323 62.7274C49.995 61.9463 49.899 60.776 49.1179 60.1133Z" fill="#191919" stroke="#191919" stroke-miterlimit="10"/>
<path d="M51.7134 63.2504L51.3476 62.9401C50.6675 62.3632 49.6485 62.4468 49.0715 63.1269L46.7236 65.8945C46.1466 66.5746 46.2302 67.5936 46.9103 68.1706L47.2761 68.4809C47.9562 69.0578 48.9752 68.9742 49.5522 68.2942L51.9001 65.5265C52.4771 64.8464 52.3935 63.8274 51.7134 63.2504Z" fill="#191919" stroke="#191919" stroke-miterlimit="10"/>
<path d="M25.246 50.508C25.246 52.1068 25.3899 53.6577 25.6777 55.1607L18.6108 54.9848C17.5395 54.9688 16.7561 54.0255 16.932 52.9702L19.2823 38.7723C19.4262 37.877 20.2416 37.2534 21.137 37.3334L28.5237 37.9729H28.5876C26.4612 41.6663 25.246 45.9512 25.246 50.508Z" fill="#C1EE83" stroke="#191919" stroke-width="2" stroke-miterlimit="10"/>
<path d="M69.4065 57.8947L48.6693 42.9614C44.96 46.7667 41.2346 48.0458 37.4773 45.5515C36.9816 45.2158 36.8857 44.5123 37.3014 44.0646L44.912 36.0223C44.912 36.0223 44.944 35.9744 44.9759 35.9744C45.1038 35.9904 45.2318 36.0383 45.3277 36.1343L69.4065 57.8947Z" fill="#C1EE83" stroke="#191919" stroke-miterlimit="10"/>
<path d="M84.6597 53.338C84.8356 54.3133 84.1481 55.2406 83.1728 55.3845L76.0418 56.2799H76.0259L75.0186 56.5197C75.4982 54.5851 75.7541 52.5865 75.7541 50.508C75.7541 46.287 74.7148 42.3058 72.8921 38.8203L79.9271 37.5732C80.8544 37.3973 81.7498 38.0369 81.9257 38.9642L84.6597 53.338Z" fill="white" stroke="#191919" stroke-width="2" stroke-miterlimit="10"/>
<path d="M76.0898 56.5836L76.0259 56.2639" stroke="#191919" stroke-miterlimit="10"/>
<path d="M75.754 50.508C75.754 52.5865 75.4982 54.5851 75.0185 56.5197L69.4065 57.8947L48.6693 42.9614C44.96 46.7667 41.2346 48.0457 37.4773 45.5515C36.9816 45.2158 36.8857 44.5123 37.3014 44.0646L44.912 36.0223C44.9919 35.9264 45.1198 35.8784 45.2477 35.8784H57.527C59.2378 35.8784 60.9326 36.1822 62.5474 36.7898L67.9995 38.8363C68.9748 39.22 70.0461 39.332 71.0853 39.1401L72.5563 38.8843L72.892 38.8203C74.7147 42.3058 75.754 46.287 75.754 50.508Z" fill="white" stroke="#191919" stroke-width="2" stroke-miterlimit="10"/>
<path d="M69.4066 57.8947L59.1259 64.7698C57.1593 65.8091 55.4166 65.905 53.482 65.0097L32.0732 56.8555L26.9249 55.1927H26.3173L25.6778 55.1607C25.39 53.6578 25.2461 52.1069 25.2461 50.508C25.2461 45.9513 26.4612 41.6663 28.5877 37.9729L31.1459 38.2128C33.2884 38.4046 35.4628 38.2447 37.5413 37.7171L44.6722 35.9584C44.7842 35.9424 44.8801 35.9424 44.976 35.9744C44.9441 35.9744 44.9281 36.0063 44.9121 36.0223L37.3015 44.0646C36.8858 44.5123 36.9817 45.2158 37.4774 45.5515C41.2347 48.0458 44.96 46.7667 48.6694 42.9614L69.4066 57.8947Z" fill="#C1EE83" stroke="#191919" stroke-width="2" stroke-miterlimit="10"/>
<path d="M41.4705 54.475L40.9706 54.0509C40.0414 53.2626 38.649 53.3768 37.8607 54.3061L34.5715 58.1832C33.7832 59.1124 33.8974 60.5048 34.8266 61.2931L35.3265 61.7172C36.2557 62.5055 37.6481 62.3913 38.4364 61.462L41.7256 57.5849C42.5139 56.6557 42.3997 55.2633 41.4705 54.475Z" fill="white" stroke="#191919" stroke-width="2" stroke-miterlimit="10"/>
<path d="M46.409 56.4578L45.9091 56.0337C44.9799 55.2454 43.5875 55.3596 42.7992 56.2888L38.548 61.2998C37.7597 62.2291 37.8739 63.6214 38.8032 64.4097L39.3031 64.8338C40.2323 65.6222 41.6246 65.5079 42.413 64.5787L46.6641 59.5677C47.4524 58.6385 47.3382 57.2461 46.409 56.4578Z" fill="white" stroke="#191919" stroke-width="2" stroke-miterlimit="10"/>
<path d="M50.7678 58.4838L50.3411 58.1218C49.56 57.4592 48.3896 57.5552 47.7269 58.3363L43.9412 62.7986C43.2786 63.5797 43.3746 64.7501 44.1557 65.4128L44.5824 65.7748C45.3635 66.4374 46.5339 66.3414 47.1966 65.5603L50.9822 61.098C51.6449 60.3169 51.5489 59.1465 50.7678 58.4838Z" fill="white" stroke="#191919" stroke-width="2" stroke-miterlimit="10"/>
<path d="M53.3472 61.605L52.9814 61.2947C52.3013 60.7177 51.2823 60.8013 50.7053 61.4814L48.3574 64.249C47.7804 64.9291 47.864 65.9482 48.5441 66.5251L48.9099 66.8354C49.59 67.4124 50.609 67.3288 51.186 66.6487L53.5339 63.8811C54.1109 63.201 54.0273 62.1819 53.3472 61.605Z" fill="white" stroke="#191919" stroke-width="2" stroke-miterlimit="10"/>
</g>
<defs>
<clipPath id="clip0_1231_1103">
<rect width="101" height="101" fill="white"/>
</clipPath>
</defs>
</svg>
