<svg width="100" height="100" viewBox="0 0 100 100" fill="none" xmlns="http://www.w3.org/2000/svg">
<g clip-path="url(#clip0_1231_974)">
<path d="M49.9921 99.9842C77.602 99.9842 99.9842 77.602 99.9842 49.9921C99.9842 22.3822 77.602 0 49.9921 0C22.3822 0 0 22.3822 0 49.9921C0 77.602 22.3822 99.9842 49.9921 99.9842Z" fill="#E9FBD5"/>
<path d="M19.8511 34.1459C25.8033 22.8589 37.866 15.387 51.4642 15.9728C70.2547 16.7801 84.8345 32.6737 84.0271 51.4643" stroke="#191919" stroke-width="1.58303" stroke-linecap="round" stroke-linejoin="round"/>
<path d="M77.7744 45.9395L78.9775 44.9105L84.0432 50.8469L89.5996 45.3696L90.7078 46.4936L83.9482 53.1739L77.7744 45.9395Z" fill="#191919"/>
<path d="M19.8511 34.1459C25.8033 22.8589 37.866 15.387 51.4642 15.9728C70.2547 16.7801 84.8345 32.6737 84.0271 51.4643" stroke="#191919" stroke-width="2" stroke-linecap="round" stroke-linejoin="round"/>
<path d="M77.7744 45.9395L78.9775 44.9105L84.0432 50.8469L89.5996 45.3696L90.7078 46.4936L83.9482 53.1739L77.7744 45.9395Z" fill="#191919"/>
<path d="M80.1487 65.8383C74.1965 77.1253 62.1338 84.5972 48.5356 84.0115C29.745 83.2041 15.1653 67.3105 15.9726 48.52" stroke="#191919" stroke-width="2" stroke-linecap="round" stroke-linejoin="round"/>
<path d="M22.21 54.0605L21.0069 55.0895L15.957 49.1373L10.4006 54.6304L9.27661 53.4906L16.052 46.826L22.21 54.0605Z" fill="#191919"/>
<path d="M48.6781 39.1642C51.6157 39.1642 53.9971 36.7828 53.9971 33.8452C53.9971 30.9076 51.6157 28.5262 48.6781 28.5262C45.7405 28.5262 43.3591 30.9076 43.3591 33.8452C43.3591 36.7828 45.7405 39.1642 48.6781 39.1642Z" fill="#191919" stroke="#191919" stroke-width="1.58303" stroke-miterlimit="10"/>
<path d="M39.5759 50.4828C39.5759 44.0241 42.1879 39.18 48.6942 39.18C55.2004 39.18 57.8124 44.0241 57.8124 50.4828L48.805 61.2316L39.5759 50.4828Z" fill="#191919" stroke="#191919" stroke-width="1.58303" stroke-miterlimit="10"/>
<path d="M39.5758 52.1451C42.5134 52.1451 44.8948 49.7637 44.8948 46.8261C44.8948 43.8885 42.5134 41.5071 39.5758 41.5071C36.6382 41.5071 34.2568 43.8885 34.2568 46.8261C34.2568 49.7637 36.6382 52.1451 39.5758 52.1451Z" fill="#191919" stroke="#191919" stroke-width="1.58303" stroke-miterlimit="10"/>
<path d="M30.4573 63.4638C30.4573 57.005 33.0693 52.1609 39.5755 52.1609C46.0818 52.1609 48.6938 57.005 48.6938 63.4638H30.4573Z" fill="#191919" stroke="#191919" stroke-width="1.58303" stroke-miterlimit="10"/>
<path d="M57.7965 52.145C60.7341 52.145 63.1155 49.7637 63.1155 46.8261C63.1155 43.8885 60.7341 41.5071 57.7965 41.5071C54.8589 41.5071 52.4775 43.8885 52.4775 46.8261C52.4775 49.7637 54.8589 52.145 57.7965 52.145Z" fill="#191919" stroke="#191919" stroke-width="1.58303" stroke-miterlimit="10"/>
<path d="M48.6785 63.4637C48.6785 57.005 51.2905 52.1609 57.7967 52.1609C64.303 52.1609 66.915 57.005 66.915 63.4637H48.6785Z" fill="#191919" stroke="#191919" stroke-width="1.58303" stroke-miterlimit="10"/>
<path d="M50.6886 37.1537C53.6262 37.1537 56.0076 34.7723 56.0076 31.8347C56.0076 28.8971 53.6262 26.5157 50.6886 26.5157C47.751 26.5157 45.3696 28.8971 45.3696 31.8347C45.3696 34.7723 47.751 37.1537 50.6886 37.1537Z" fill="white" stroke="#191919" stroke-width="2" stroke-miterlimit="10"/>
<path d="M41.5706 48.4724C41.5706 42.0136 44.1826 37.1696 50.6888 37.1696C57.1951 37.1696 59.8071 42.0136 59.8071 48.4724L50.7996 59.2212L41.5706 48.4724Z" fill="white" stroke="#191919" stroke-width="2" stroke-miterlimit="10"/>
<path d="M41.57 50.1346C44.5076 50.1346 46.8889 47.7532 46.8889 44.8156C46.8889 41.878 44.5076 39.4966 41.57 39.4966C38.6324 39.4966 36.251 41.878 36.251 44.8156C36.251 47.7532 38.6324 50.1346 41.57 50.1346Z" fill="#C1EE83" stroke="#191919" stroke-width="2" stroke-miterlimit="10"/>
<path d="M32.4678 61.4532C32.4678 54.9945 35.0798 50.1504 41.586 50.1504C48.0923 50.1504 50.7043 54.9945 50.7043 61.4532H32.4678Z" fill="#C1EE83" stroke="#191919" stroke-width="2" stroke-miterlimit="10"/>
<path d="M59.8068 50.1346C62.7444 50.1346 65.1258 47.7532 65.1258 44.8156C65.1258 41.878 62.7444 39.4966 59.8068 39.4966C56.8692 39.4966 54.4878 41.878 54.4878 44.8156C54.4878 47.7532 56.8692 50.1346 59.8068 50.1346Z" fill="#C1EE83" stroke="#191919" stroke-width="2" stroke-miterlimit="10"/>
<path d="M50.6887 61.4532C50.6887 54.9945 53.3007 50.1504 59.807 50.1504C66.3132 50.1504 68.9252 54.9945 68.9252 61.4532H50.6887Z" fill="#C1EE83" stroke="#191919" stroke-width="2" stroke-miterlimit="10"/>
</g>
<defs>
<clipPath id="clip0_1231_974">
<rect width="100" height="100" fill="white"/>
</clipPath>
</defs>
</svg>
