<svg width="32" height="33" viewBox="0 0 32 33" fill="none" xmlns="http://www.w3.org/2000/svg">
<g opacity="0.98104">
<rect y="0.00976562" width="32" height="32.98" rx="16" fill="#3F9444"/>
<g clip-path="url(#clip0_686_3449)">
<path d="M17.223 23.5938V16.5697H19.7001L20.0836 13.8177H17.223V12.0737C17.223 11.6257 17.3136 11.3004 17.4947 11.0977C17.7184 10.8524 18.1073 10.7297 18.6613 10.7297H20.1795V8.28175C19.5509 8.20708 18.8105 8.16975 17.9581 8.16975C17.223 8.16975 16.5758 8.31108 16.0164 8.59375C15.4571 8.87642 15.0283 9.28442 14.7299 9.81775C14.4103 10.3724 14.2505 11.0337 14.2505 11.8017V13.8177H11.7734V16.5697H14.2505V23.5938H17.223Z" fill="white"/>
</g>
</g>
<defs>
<clipPath id="clip0_686_3449">
<rect width="8.46" height="16" fill="white" transform="matrix(1 0 0 -1 11.7734 24.0098)"/>
</clipPath>
</defs>
</svg>
