<svg width="150" height="144" viewBox="0 0 150 144" fill="none" xmlns="http://www.w3.org/2000/svg">
<g clip-path="url(#clip0_715_1232)">
<g clip-path="url(#clip1_715_1232)">
<g clip-path="url(#clip2_715_1232)">
<path d="M75.3809 143.272C114.803 143.272 146.762 111.313 146.762 71.8907C146.762 32.4681 114.803 0.509766 75.3809 0.509766C35.9583 0.509766 4 32.4681 4 71.8907C4 111.313 35.9583 143.272 75.3809 143.272Z" fill="#E9FBD5"/>
<path d="M110.409 121.079C113.464 121.079 115.939 118.604 115.939 115.549V32.6081C115.939 29.5531 113.464 27.0786 110.409 27.0786H43.4094C40.3544 27.0786 37.8799 29.5531 37.8799 32.6081V38.1375H32.3497C29.2947 38.1375 26.8203 40.6119 26.8203 43.6669V115.549C26.8203 118.604 29.2947 121.079 32.3497 121.079H110.409Z" fill="#292C32"/>
<path d="M43.6445 114.079V33.1377H36.3504C33.8477 33.1377 31.821 35.1644 31.821 37.6671V109.549C31.821 112.052 33.8477 114.079 36.3504 114.079H43.6445Z" fill="#B6F174" stroke="#292C32" stroke-width="2"/>
<path d="M42.8806 109.549C42.8806 111.309 42.1856 112.905 41.055 114.079H114.41C116.913 114.079 118.939 112.052 118.939 109.549V26.6081C118.939 24.1053 116.913 22.0786 114.41 22.0786H47.41C44.9073 22.0786 42.8806 24.1053 42.8806 26.6081V109.549Z" fill="white" stroke="#292C32" stroke-width="2"/>
<path d="M52.939 30.0786H108.939C110.596 30.0786 111.939 31.4218 111.939 33.0786V53.0786C111.939 54.7355 110.596 56.0786 108.939 56.0786H52.939C51.2821 56.0786 49.939 54.7355 49.939 53.0786V33.0786C49.939 31.4218 51.2821 30.0786 52.939 30.0786Z" fill="#134F1A"/>
<path d="M110.439 68.5786H51.439" stroke="#292C32" stroke-width="3" stroke-linecap="round"/>
<path d="M96.4395 80.5786H51.4395" stroke="#292C32" stroke-width="3" stroke-linecap="round"/>
<path d="M110.439 92.5786H51.439" stroke="#292C32" stroke-width="3" stroke-linecap="round"/>
</g>
</g>
</g>
<defs>
<clipPath id="clip0_715_1232">
<rect width="150" height="143" fill="white" transform="translate(0 0.509766)"/>
</clipPath>
<clipPath id="clip1_715_1232">
<rect width="150" height="143" fill="white" transform="translate(0 0.509766)"/>
</clipPath>
<clipPath id="clip2_715_1232">
<rect width="150" height="143" fill="white" transform="translate(0 0.509766)"/>
</clipPath>
</defs>
</svg>
