<svg width="56" height="57" viewBox="0 0 56 57" fill="none" xmlns="http://www.w3.org/2000/svg">
<g clip-path="url(#clip0_949_4169)">
<g clip-path="url(#clip1_949_4169)">
<path d="M56 0.969971H0V56.97H56V0.969971Z" fill="#134F1A"/>
<path d="M34.2962 14H21.7606C20.7633 14 19.8068 14.3962 19.1015 15.1015C18.3962 15.8068 18 16.7633 18 17.7606V40.2394C18 41.2367 18.3962 42.1933 19.1015 42.8985C19.8068 43.6038 20.7633 44 21.7606 44H34.2962C35.2936 44 36.2501 43.6038 36.9554 42.8985C37.6607 42.1933 38.0569 41.2367 38.0569 40.2394V17.7606C38.0569 16.7633 37.6607 15.8068 36.9554 15.1015C36.2501 14.3962 35.2936 14 34.2962 14ZM28.0284 42.1197C27.7805 42.1197 27.5381 42.0462 27.332 41.9085C27.1258 41.7707 26.9652 41.5749 26.8703 41.3459C26.7754 41.1168 26.7506 40.8648 26.799 40.6216C26.8473 40.3784 26.9667 40.1551 27.142 39.9798C27.3174 39.8044 27.5407 39.685 27.7838 39.6367C28.027 39.5883 28.2791 39.6131 28.5082 39.708C28.7372 39.8029 28.9329 39.9635 29.0707 40.1697C29.2084 40.3759 29.2819 40.6182 29.2819 40.8662C29.2819 41.1986 29.1499 41.5175 28.9148 41.7526C28.6797 41.9876 28.3609 42.1197 28.0284 42.1197ZM35.5498 36.4787C35.5498 36.8112 35.4177 37.13 35.1826 37.3651C34.9475 37.6002 34.6286 37.7323 34.2962 37.7323H21.7606C21.4282 37.7323 21.1093 37.6002 20.8743 37.3651C20.6392 37.13 20.5071 36.8112 20.5071 36.4787V18.3875C20.5071 18.055 20.6392 17.7361 20.8743 17.5011C21.1093 17.2659 21.4282 17.1339 21.7606 17.1339H34.2962C34.6286 17.1339 34.9475 17.2659 35.1826 17.5011C35.4177 17.7361 35.5498 18.055 35.5498 18.3875V36.4787Z" fill="white"/>
</g>
</g>
<defs>
<clipPath id="clip0_949_4169">
<rect width="56" height="56" fill="white" transform="translate(0 0.969971)"/>
</clipPath>
<clipPath id="clip1_949_4169">
<rect width="56" height="56" fill="white" transform="translate(0 0.969971)"/>
</clipPath>
</defs>
</svg>
