<svg width="170" height="47" viewBox="0 0 170 47" fill="none" xmlns="http://www.w3.org/2000/svg">
<path d="M52.0501 15.0399C49.9472 11.0477 46.1182 8.37598 41.7397 8.37598C35.1011 8.37598 29.7109 14.5272 29.7109 22.1212C29.7109 29.7151 35.1011 35.8664 41.7397 35.8664C46.1143 35.8664 49.9453 33.1946 52.0501 29.2006V35.181H58.9236V9.06333H52.0501V15.0399ZM43.4639 28.9948C39.6621 28.9948 36.5903 25.9152 36.5903 22.1212C36.5903 18.3271 39.6621 15.2496 43.4639 15.2496C47.2657 15.2496 50.3375 18.3291 50.3375 22.1212C50.3375 25.9133 47.258 28.9948 43.4639 28.9948Z" fill="#134F1A"/>
<path d="M101.886 14.9803C99.7832 10.9882 95.9541 8.31836 91.5756 8.31836C84.937 8.31836 79.5469 14.4696 79.5469 22.0636C79.5469 29.6575 84.937 35.8088 91.5756 35.8088C95.9503 35.8088 99.7812 33.137 101.886 29.143V35.1214H108.76V9.00572H101.886V14.9822V14.9803ZM93.2999 28.9352C89.498 28.9352 86.4263 25.8557 86.4263 22.0616C86.4263 18.2676 89.498 15.19 93.2999 15.19C97.1017 15.19 100.173 18.2695 100.173 22.0616C100.173 25.8537 97.0939 28.9352 93.2999 28.9352Z" fill="#134F1A"/>
<path d="M79.5552 9.06348H72.1554C66.7653 9.06348 62.3984 13.4303 62.3984 18.8205V35.1811H69.272V17.8884C69.272 16.8108 70.1458 15.9371 71.2234 15.9371H79.5571V9.06348H79.5552Z" fill="#134F1A"/>
<path d="M133.613 14.9793C131.51 10.9872 127.681 8.31543 123.302 8.31543C116.664 8.31543 111.273 14.4667 111.273 22.0606C111.273 29.6546 116.664 35.8058 123.302 35.8058C127.677 35.8058 131.508 33.1341 133.613 29.14V38.1747C133.613 39.2523 132.739 40.1261 131.661 40.1261H114.712V46.9997H130.729C136.119 46.9997 140.486 42.6328 140.486 37.2427V9.10375H133.613V14.9793ZM125.026 28.9342C121.225 28.9342 118.153 25.8547 118.153 22.0606C118.153 18.2666 121.225 15.189 125.026 15.189C128.828 15.189 131.898 18.2685 131.898 22.0606C131.898 25.8528 128.819 28.9342 125.026 28.9342Z" fill="#134F1A"/>
<path d="M169.32 22.0597C169.32 15.7375 165.584 8.31445 156.737 8.31445C149.147 8.31445 142.992 14.4735 142.992 22.0597C142.992 29.6458 149.151 35.8049 156.737 35.8049C162.766 35.8049 165.838 32.5428 168.273 30.3332L163.324 26.3178C161.516 28.1061 159.238 28.9371 156.735 28.9371C153.532 28.9371 150.839 26.7469 150.085 23.7819H169.205C169.283 23.215 169.318 22.6461 169.318 22.0616L169.32 22.0597ZM150.334 19.5801C151.32 17.0074 153.815 15.19 156.737 15.19C159.66 15.19 162.166 17.388 162.368 19.5801H150.332H150.334Z" fill="#134F1A"/>
<path d="M7.63666 5.21631H0V35.5222H7.63666V5.21631Z" fill="#134F1A"/>
<path d="M17.0329 20.2324C17.0426 19.8188 17.2174 19.4266 17.5164 19.1431L33.1936 5.82506L28.2539 0L13.4602 12.5666C11.2525 14.4384 9.94575 17.1723 9.87779 20.0654C9.80983 22.9605 10.9846 25.7526 13.1029 27.7273L22.4968 36.4843L27.7025 30.8981L17.53 21.4149C17.2038 21.11 17.0213 20.679 17.0329 20.2324Z" fill="#134F1A"/>
</svg>
