<svg width="32" height="33" viewBox="0 0 32 33" fill="none" xmlns="http://www.w3.org/2000/svg">
<g opacity="0.98104">
<rect width="32" height="32.98" rx="16" fill="#3F9444"/>
<g clip-path="url(#clip0_686_3452)">
<path d="M18.4348 9.87111V9.85812H19.1238L19.3708 9.91012C19.5788 9.95345 19.7305 9.99461 19.8258 10.0336C19.9211 10.0726 20.0555 10.1354 20.2288 10.2221L20.3068 10.2741C20.4368 10.3434 20.5278 10.3998 20.5798 10.4431C20.6838 10.5211 20.777 10.5991 20.8593 10.6771C20.9416 10.7551 21.0651 10.7768 21.2298 10.7421C21.3425 10.7161 21.5288 10.6598 21.7888 10.5731C21.8755 10.5471 22.0055 10.4951 22.1788 10.4171L22.3738 10.3391L22.5688 10.2481C22.6641 10.2048 22.7205 10.1788 22.7378 10.1701L22.8028 10.1311V10.1181L22.8548 10.0921H22.8678V10.0791H22.8938V10.1181L22.8808 10.1571L22.8548 10.1831L22.8418 10.2481C22.8418 10.2568 22.8201 10.3088 22.7768 10.4041L22.7118 10.5211C22.6251 10.7031 22.5255 10.8591 22.4128 10.9891C22.2741 11.1711 22.1701 11.2924 22.1008 11.3531C22.0575 11.3791 22.0141 11.4181 21.9708 11.4701L21.9058 11.5221C21.8885 11.5481 21.8538 11.5784 21.8018 11.6131L21.6458 11.7171V11.7301H21.6328H21.6978L22.0748 11.6521C22.3261 11.6001 22.5601 11.5351 22.7768 11.4571L23.2578 11.2881H23.3098V11.3141H23.2838V11.3271H23.2708V11.3401L22.9848 11.7171C22.9328 11.7951 22.9025 11.8341 22.8938 11.8341C22.8851 11.8341 22.8743 11.8428 22.8613 11.8601C22.8483 11.8774 22.8028 11.9338 22.7248 12.0291L22.5818 12.1721C22.3565 12.3801 22.1875 12.5318 22.0748 12.6271C21.9188 12.7484 21.8321 12.9131 21.8148 13.1211C21.8148 13.2424 21.8061 13.4548 21.7888 13.7581V13.7971C21.7801 14.0051 21.7455 14.2694 21.6848 14.5901C21.6501 14.8761 21.5765 15.2011 21.4638 15.5651C21.3425 15.9898 21.2211 16.3451 21.0998 16.6311C20.9265 17.0211 20.7705 17.3331 20.6318 17.5671C20.4671 17.8618 20.3241 18.0914 20.2028 18.2561C20.1248 18.3688 20.0035 18.5334 19.8388 18.7501L19.7998 18.8021L19.6828 18.9321C19.5181 19.1141 19.3838 19.2571 19.2798 19.3611L18.9288 19.7121L18.6688 19.9331L18.1878 20.3101C17.9885 20.4488 17.8281 20.5528 17.7068 20.6221C17.6115 20.6828 17.4338 20.7781 17.1738 20.9081C17.0178 21.0034 16.7968 21.1031 16.5108 21.2071C16.3201 21.2938 16.0688 21.3804 15.7568 21.4671C15.5921 21.5278 15.3538 21.5884 15.0418 21.6491L14.9898 21.6621C14.6778 21.7141 14.4005 21.7488 14.1578 21.7661L13.6768 21.8181H12.8188L12.7148 21.8051C12.6195 21.8051 12.5545 21.8008 12.5198 21.7921L11.9738 21.7271L11.7658 21.6881C11.4971 21.6448 11.3195 21.6144 11.2328 21.5971C10.9295 21.5104 10.6565 21.4238 10.4138 21.3371C10.0585 21.2158 9.75515 21.0901 9.50381 20.9601C9.39981 20.9168 9.27848 20.8604 9.13981 20.7911L9.02281 20.7261C8.93615 20.6741 8.86681 20.6351 8.81481 20.6091L8.69781 20.5311H8.68481V20.5181L8.65881 20.5051H8.64581V20.4921H8.63281V20.4531H8.64581L8.65881 20.4661H8.71081C8.72815 20.4748 8.78448 20.4791 8.87981 20.4791L9.03581 20.4921C9.21781 20.5008 9.40415 20.5008 9.59481 20.4921C9.86348 20.4748 10.0671 20.4531 10.2058 20.4271C10.4138 20.4011 10.6586 20.3491 10.9403 20.2711C11.222 20.1931 11.4863 20.0999 11.7333 19.9916C11.9803 19.8833 12.1385 19.8096 12.2078 19.7706C12.2771 19.7316 12.4115 19.6514 12.6108 19.5301L12.9748 19.2831H12.9878V19.2701L13.0008 19.2571H13.0138L13.0268 19.2441H13.0398V19.2181H13.0528L12.9358 19.2051C12.8491 19.2051 12.7863 19.2029 12.7473 19.1986C12.7083 19.1943 12.6411 19.1834 12.5458 19.1661L12.4288 19.1401C12.2555 19.0968 12.1038 19.0404 11.9738 18.9711C11.8611 18.9278 11.7008 18.8454 11.4928 18.7241C11.3108 18.6028 11.1981 18.5204 11.1548 18.4771C11.0508 18.3731 10.9641 18.2821 10.8948 18.2041C10.7561 18.0481 10.6608 17.9311 10.6088 17.8531C10.5135 17.6971 10.4398 17.5541 10.3878 17.4241L10.2708 17.1771L10.2578 17.1381V17.1121H10.2968L10.4398 17.1381C10.5005 17.1468 10.6521 17.1511 10.8948 17.1511C11.0768 17.1511 11.2198 17.1424 11.3238 17.1251L11.4668 17.0991L11.4928 17.0861L11.5708 17.0731L11.5838 17.0601L11.4408 17.0341C11.4321 17.0254 11.4148 17.0211 11.3888 17.0211L11.3498 17.0081C11.3151 16.9908 11.2003 16.9409 11.0053 16.8586C10.8103 16.7763 10.6521 16.6961 10.5308 16.6181L10.4918 16.5921C10.3618 16.4881 10.2665 16.4058 10.2058 16.3451C10.0758 16.2324 9.96315 16.1111 9.86781 15.9811C9.77248 15.8771 9.65981 15.7038 9.52981 15.4611C9.41715 15.2098 9.34348 15.0191 9.30881 14.8891C9.25681 14.6464 9.22648 14.4601 9.21781 14.3301L9.19181 14.0571H9.20481L9.21781 14.0701L9.51681 14.2001C9.70748 14.2694 9.86348 14.3171 9.98481 14.3431C10.1841 14.3778 10.3055 14.4038 10.3488 14.4211H10.5308L10.3228 14.2651C10.2881 14.2391 10.2318 14.1914 10.1538 14.1221L10.1018 14.0571C10.0151 13.9704 9.93281 13.8751 9.85481 13.7711C9.78548 13.6931 9.71615 13.5891 9.64681 13.4591C9.58615 13.3638 9.52115 13.2251 9.45181 13.0431C9.39115 12.8871 9.33915 12.7138 9.29581 12.5231C9.26981 12.4104 9.24815 12.2414 9.23081 12.0161C9.23081 11.8081 9.23515 11.6651 9.24381 11.5871C9.25248 11.4744 9.27848 11.3358 9.32181 11.1711L9.34781 11.0931C9.40848 10.9284 9.46048 10.7984 9.50381 10.7031L9.62081 10.4041H9.63381V10.3911H9.64681V10.4041H9.65981V10.4171L9.67281 10.4431H9.68581V10.4561L9.86781 10.6511C10.0238 10.8244 10.1625 10.9718 10.2838 11.0931C10.3705 11.1798 10.4571 11.2621 10.5438 11.3401L10.5568 11.3531C10.5741 11.3531 10.5915 11.3704 10.6088 11.4051L10.6218 11.4181C10.6478 11.4441 10.7366 11.5178 10.8883 11.6391C11.04 11.7604 11.2371 11.9078 11.4798 12.0811L11.5578 12.1331C11.8698 12.3238 12.1125 12.4668 12.2858 12.5621C12.5978 12.7268 12.9141 12.8698 13.2348 12.9911C13.5901 13.1298 13.8285 13.2164 13.9498 13.2511C14.1318 13.3031 14.3658 13.3508 14.6518 13.3941C14.8945 13.4374 15.1458 13.4808 15.4058 13.5241L15.7438 13.5501H15.8348L15.8088 13.3421C15.7915 13.2728 15.7828 13.1211 15.7828 12.8871C15.7828 12.6791 15.7958 12.4928 15.8218 12.3281C15.8738 12.1028 15.9215 11.9338 15.9648 11.8211L15.9778 11.7691C16.0471 11.5871 16.1035 11.4658 16.1468 11.4051C16.2161 11.3011 16.2941 11.1841 16.3808 11.0541C16.5195 10.8808 16.6451 10.7421 16.7578 10.6381C16.9225 10.4908 17.098 10.3651 17.2843 10.2611C17.4706 10.1571 17.6526 10.0726 17.8303 10.0076C18.008 9.94261 18.1531 9.90578 18.2658 9.89711L18.4348 9.87111Z" fill="white"/>
</g>
</g>
<defs>
<clipPath id="clip0_686_3452">
<rect width="15.8" height="13" fill="white" transform="matrix(1 0 0 -1 8.09375 22)"/>
</clipPath>
</defs>
</svg>
