<svg width="119" height="28" viewBox="0 0 119 28" fill="none" xmlns="http://www.w3.org/2000/svg">
<g opacity="0.7">
<path d="M19.7477 27.188L11.9894 27.0446C9.47734 26.9946 6.95913 27.0945 4.49647 26.5767C0.750024 25.8032 0.484624 22.0105 0.206881 18.8291C-0.175788 14.3565 -0.027658 9.80276 0.694475 5.36756C1.10183 2.8786 2.70657 1.39396 5.18775 1.23178C13.5633 0.645405 21.9943 0.714023 30.3513 0.988494C31.2339 1.01345 32.1227 1.15068 32.993 1.30663C37.2887 2.06767 37.3936 6.36564 37.6714 9.98367C37.9491 13.6391 37.8319 17.3133 37.3011 20.9438C36.8752 23.9505 36.0605 26.4707 32.6226 26.7139C28.3145 27.0321 24.1052 27.2878 19.7847 27.2067C19.7847 27.188 19.76 27.188 19.7477 27.188V27.188ZM15.1865 19.5777C18.433 17.6938 21.6178 15.8411 24.8458 13.9697C21.5931 12.0859 18.4145 10.2332 15.1865 8.36179V19.5777Z" fill="white"/>
<path d="M99.9009 23.7697C99.7528 24.381 99.6232 24.8613 99.4935 25.3728H96.4569V1.69946H99.9997V10.4327C100.185 10.1957 100.277 10.0959 100.358 9.98982C100.962 9.14769 101.746 8.59874 102.759 8.38665C104.369 8.06851 105.746 8.78588 106.233 10.3516C106.548 11.3248 106.752 12.3665 106.777 13.3833C106.826 15.9971 106.789 18.6046 106.696 21.2183C106.659 22.0168 106.419 22.834 106.116 23.5825C105.122 26.0528 101.876 26.4271 100.265 24.2874C100.166 24.1564 100.074 24.0129 99.9009 23.7697V23.7697ZM100.074 17.2571V21.5863C100.074 22.2912 100.444 22.7217 101.141 22.8839C101.827 23.046 102.382 22.7778 102.66 22.1353C102.777 21.8671 102.894 21.5863 102.901 21.3056C102.968 18.6607 103.03 16.0158 103.049 13.3646C103.049 12.8718 102.931 12.3603 102.783 11.88C102.506 11.0129 101.74 10.7571 100.987 11.2624C100.419 11.6491 100.074 12.1981 100.074 12.9279V17.2571ZM90.4453 8.7235H94.1547V25.3853H91.26C91.1551 24.7553 91.0502 24.1065 90.9267 23.3455C90.7292 23.6387 90.6119 23.8258 90.4885 24.0129C89.5257 25.4165 88.1616 25.8968 86.5507 25.6411C85.1743 25.4165 84.3473 24.3436 84.1621 22.5844C84.1066 22.0604 84.0819 21.5302 84.0819 21.0062C84.0695 17.1074 84.0819 13.1962 84.0819 9.2974V8.71102H87.8345V9.39097C87.8345 13.1588 87.8222 16.9203 87.8469 20.6881C87.8469 21.2245 87.9024 21.7797 87.995 22.3162C88.0999 22.8651 88.4949 23.0648 89.0257 23.0273C89.8836 22.9587 90.4762 22.3162 90.4762 21.4553V9.45959C90.4453 9.21631 90.4453 8.99174 90.4453 8.7235V8.7235ZM64.9053 8.71102H68.6332V9.41592C68.6332 13.165 68.6209 16.9078 68.6455 20.6444C68.6455 21.1809 68.6949 21.7361 68.806 22.2601C68.948 22.8776 69.306 23.0772 69.917 22.9961C70.7626 22.8776 71.2748 22.285 71.281 21.4179V9.48454V8.73598H74.9904V25.3853H72.1081C72.0031 24.7678 71.8982 24.1315 71.7624 23.3268C71.5773 23.6075 71.4724 23.7697 71.3674 23.9381C70.4046 25.3666 69.0529 25.8906 67.405 25.6348C66.0841 25.4352 65.2756 24.4496 65.0287 22.834C64.9608 22.3287 64.9114 21.8296 64.9114 21.3243C64.8991 17.2759 64.8991 13.2087 64.8991 9.16016L64.9053 8.71102ZM62.9919 17.6065C62.9796 18.1679 62.9426 18.7293 62.9117 19.2907C62.7697 20.975 62.7018 23.3642 61.3563 24.5931C60.4984 25.3666 59.4121 25.6473 58.2888 25.6847C57.7889 25.6972 57.2828 25.6972 56.7828 25.6286C54.4189 25.2668 53.3203 24.2126 52.9253 21.5863C52.4747 18.5547 52.4377 15.4731 52.9747 12.4414C53.5301 9.30364 55.4435 8.19327 58.4184 8.39912C61.1959 8.59874 62.4364 10.439 62.7636 13.0589C62.9426 14.5623 63.029 16.0844 62.9919 17.6065V17.6065ZM59.2146 17.0326C59.2146 15.9659 59.2393 14.8929 59.2023 13.8262C59.1776 13.2087 59.0974 12.5849 58.9677 11.9735C58.8196 11.2686 58.3752 10.9318 57.8197 10.9442C57.2766 10.9567 56.8939 11.2936 56.6964 11.9486C56.6285 12.1919 56.5545 12.4414 56.5545 12.6847C56.5545 14.3565 56.5421 16.0345 56.5298 17.7063C56.5174 19.2658 56.3199 20.9002 56.8075 22.3911C56.9556 22.8464 57.3383 23.096 57.8383 23.096C58.3258 23.096 58.6468 22.8527 58.8258 22.416C58.9677 22.0792 59.0912 21.7111 59.0912 21.3493C59.1344 19.9146 59.2146 18.4736 59.2146 17.0326ZM47.4815 13.8948C47.8086 12.2792 48.1172 10.701 48.4567 9.1165C48.8826 7.10161 49.3578 5.08672 49.7775 3.06559C49.8825 2.57279 50.08 2.45427 50.5429 2.46674C51.5366 2.50417 52.5488 2.47922 53.6104 2.47922C53.2647 3.76426 52.9253 4.98691 52.592 6.19085C51.5366 9.97111 50.4811 13.7638 49.4381 17.5566C49.3578 17.8498 49.3208 18.1679 49.3208 18.4798C49.3085 20.5508 49.3208 22.6156 49.3208 24.6867V25.3604H45.6978C45.6854 25.1732 45.6608 24.9861 45.6608 24.7989C45.6608 23.6262 45.5682 22.4472 45.6731 21.2869C45.9385 18.4985 45.0621 15.9347 44.3523 13.3397C43.4141 9.90873 42.4636 6.46533 41.5255 3.0344C41.4761 2.87222 41.4576 2.69755 41.4082 2.49793H45.1053C45.883 6.28443 46.6668 10.0709 47.4815 13.8948ZM118.368 18.2428H112.122C112.189 19.5091 112.214 20.713 112.344 21.9045C112.436 22.7341 112.887 23.0897 113.597 23.096C114.337 23.1084 114.769 22.7341 114.942 21.9107C114.998 21.6425 115.035 21.3743 115.06 21.0998C115.084 20.8565 115.097 20.5945 115.115 20.2452C116.17 20.3013 117.201 20.3637 118.22 20.4074C118.812 22.1852 117.744 24.4683 115.948 25.1732C114.535 25.7346 113.084 25.7346 111.64 25.3042C110.572 24.9861 109.776 24.2999 109.418 23.2457C109.085 22.2601 108.77 21.2308 108.702 20.2015C108.517 17.6626 108.449 15.0988 108.832 12.5537C108.9 12.1295 109.017 11.724 109.147 11.3123C109.665 9.61554 110.795 8.57379 112.541 8.39912C113.492 8.30555 114.473 8.34298 115.411 8.50517C116.93 8.77341 117.738 9.87754 118.09 11.3248C118.25 12.0047 118.368 12.7034 118.392 13.3958C118.399 14.9865 118.368 16.5647 118.368 18.2428ZM114.819 16.0532C114.819 14.7994 114.831 13.6204 114.806 12.4351C114.806 12.1544 114.702 11.8612 114.597 11.593C114.387 11.069 113.949 10.9255 113.424 10.9255C112.899 10.9255 112.566 11.1938 112.436 11.6741C112.041 13.1151 112.171 14.5873 112.183 16.0657C113.128 16.0532 113.986 16.0532 114.819 16.0532V16.0532Z" fill="white"/>
<path d="M77.854 5.53616H74.1816V2.52942H85.1432V5.51745H81.4955V25.3607H77.8602L77.854 5.53616Z" fill="white"/>
</g>
</svg>
