<svg width="23" height="22" viewBox="0 0 23 22" fill="none" xmlns="http://www.w3.org/2000/svg">
<path d="M2.08438 1.16592C2.08438 0.843256 2.19804 0.568254 2.42537 0.340921C2.65271 0.113588 2.92771 -7.82013e-05 3.25038 -7.82013e-05H21.4884C21.811 -7.82013e-05 22.0824 0.113588 22.3024 0.340921C22.5224 0.568254 22.6324 0.843256 22.6324 1.16592V19.4039C22.6324 19.7266 22.5224 19.9979 22.3024 20.2179C22.0824 20.4379 21.811 20.5479 21.4884 20.5479C21.1657 20.5479 20.8907 20.4379 20.6634 20.2179C20.436 19.9979 20.3224 19.7266 20.3224 19.4039V3.95992L2.96438 21.3179C2.72971 21.5526 2.45471 21.6699 2.13937 21.6699C1.82404 21.6699 1.55271 21.5563 1.32537 21.3289C1.09804 21.1016 0.984375 20.8266 0.984375 20.5039C0.984375 20.1813 1.09437 19.9099 1.31437 19.6899L18.6944 2.30992H3.25038C2.92771 2.30992 2.65271 2.19992 2.42537 1.97992C2.19804 1.75992 2.08438 1.48859 2.08438 1.16592Z" fill="#ECFBCC"/>
</svg>
