<svg width="100" height="100" viewBox="0 0 100 100" fill="none" xmlns="http://www.w3.org/2000/svg">
<rect width="100" height="100" rx="50" fill="#3F9444"/>
<path d="M38.9998 61.0001H60.9998V39.0001H38.9998V61.0001ZM53.6665 64.6667H46.3332V68.3334H42.6665V64.6667H37.1665C36.154 64.6667 35.3332 63.846 35.3332 62.8334V57.3334H31.6665V53.6667H35.3332V46.3334H31.6665V42.6667H35.3332V37.1667C35.3332 36.1542 36.154 35.3334 37.1665 35.3334H42.6665V31.6667H46.3332V35.3334H53.6665V31.6667H57.3332V35.3334H62.8332C63.8457 35.3334 64.6665 36.1542 64.6665 37.1667V42.6667H68.3332V46.3334H64.6665V53.6667H68.3332V57.3334H64.6665V62.8334C64.6665 63.846 63.8457 64.6667 62.8332 64.6667H57.3332V68.3334H53.6665V64.6667ZM42.6665 42.6667H57.3332V57.3334H42.6665V42.6667Z" fill="white"/>
</svg>
