<svg width="152" height="51" viewBox="0 0 152 51" fill="none" xmlns="http://www.w3.org/2000/svg">
<path d="M18.7107 0H20.0617C24.7519 0.103051 29.3657 2.0095 32.6794 5.38443C31.4559 6.64681 30.2069 7.85766 29.0088 9.12004C27.148 7.41969 24.9049 6.10579 22.4578 5.64206C18.8381 4.86917 14.9381 5.56477 11.9048 7.65156C8.591 9.8414 6.34785 13.5512 5.86353 17.5187C5.32823 21.4347 6.42432 25.5567 8.94787 28.5967C11.3695 31.5594 15.0656 33.4144 18.8891 33.5432C22.4578 33.7493 26.1794 32.6415 28.7794 30.1167C30.8186 28.3391 31.7618 25.634 32.0677 23.0062C27.8363 23.0062 23.6048 23.032 19.3734 23.0062V17.6991H37.1912C38.1089 23.3926 36.7834 29.8076 32.501 33.8781C29.6461 36.7635 25.6951 38.4639 21.6676 38.7988C17.7675 39.1852 13.7401 38.4381 10.2734 36.5317C6.11844 34.2903 2.80469 30.5032 1.1733 26.0462C-0.356124 21.9499 -0.381614 17.3126 1.04585 13.1906C2.34586 9.42919 4.84392 6.10579 8.05571 3.78713C11.14 1.49424 14.8871 0.231865 18.7107 0Z" fill="#292C32"/>
<path d="M120.93 1.33984H126.385V38.1291C124.575 38.1291 122.739 38.1548 120.93 38.1033C120.955 25.866 120.93 13.6029 120.93 1.33984V1.33984Z" fill="#292C32"/>
<path d="M49.3246 14.0923C52.6893 13.4482 56.3345 14.1696 59.1129 16.2048C61.6365 18.0082 63.3953 20.8421 63.9306 23.9336C64.6189 27.5146 63.7522 31.4305 61.458 34.2644C58.9855 37.4332 54.9325 39.1336 50.9815 38.8759C47.3618 38.6698 43.8442 36.8407 41.703 33.8522C39.2814 30.5546 38.6951 26.0204 40.0206 22.156C41.3461 18.0082 45.0932 14.8394 49.3246 14.0923V14.0923ZM50.0893 18.9872C48.7128 19.3479 47.4383 20.1465 46.5207 21.2801C44.0481 24.2685 44.201 29.1377 46.9285 31.92C48.4834 33.5173 50.8285 34.2644 52.9952 33.8265C55.009 33.4658 56.7678 32.1004 57.7364 30.297C59.4188 27.2312 58.9345 23.0062 56.36 20.6102C54.7031 19.0645 52.2815 18.4204 50.0893 18.9872Z" fill="#292C32"/>
<path d="M76.34 14.0922C80.1891 13.3451 84.395 14.4272 87.2754 17.158C91.9657 21.4089 92.4755 29.3696 88.4735 34.2646C86.0519 37.3561 82.1264 39.0565 78.2518 38.8761C74.5557 38.7731 70.9106 36.9181 68.7184 33.8524C66.2458 30.4774 65.7105 25.8401 67.1125 21.8984C68.5145 17.8794 72.1851 14.8136 76.34 14.0922V14.0922ZM77.1047 18.9872C75.7283 19.3479 74.4537 20.1465 73.5361 21.2543C71.089 24.1913 71.191 28.9832 73.8165 31.7913C75.3714 33.4659 77.793 34.2903 80.0361 33.8266C82.0244 33.4402 83.8087 32.1005 84.7774 30.2971C86.4342 27.2055 85.9499 22.9804 83.3499 20.5845C81.693 19.0387 79.2714 18.4204 77.1047 18.9872Z" fill="#292C32"/>
<path d="M99.2637 15.5867C102.195 13.7318 106.095 13.2165 109.256 14.8138C110.25 15.2518 111.066 15.9989 111.856 16.746C111.881 16.0504 111.856 15.3291 111.881 14.6077C113.589 14.6335 115.297 14.6077 117.031 14.6335V37.3562C117.005 40.7827 116.138 44.4152 113.691 46.9142C111.015 49.6708 106.911 50.521 103.215 49.9542C99.2637 49.3617 95.8225 46.4505 94.2931 42.7664C95.8225 42.0193 97.4284 41.4267 99.0088 40.7311C99.901 42.8437 101.711 44.6471 103.979 45.0593C106.248 45.4715 108.874 44.9047 110.352 42.9983C111.932 41.0403 111.932 38.361 111.856 35.965C110.683 37.1243 109.332 38.1549 107.701 38.5413C104.158 39.546 100.258 38.3094 97.5304 35.8877C94.7774 33.466 93.146 29.7304 93.2989 26.0206C93.3754 21.8213 95.7205 17.7765 99.2637 15.5867V15.5867ZM104.54 18.8843C102.985 19.1419 101.532 20.0179 100.538 21.2287C98.1421 24.1142 98.1421 28.7257 100.564 31.5596C101.94 33.2342 104.158 34.1616 106.299 33.9298C108.313 33.7237 110.174 32.4355 111.168 30.6579C112.85 27.6437 112.57 23.5474 110.301 20.9196C108.899 19.2965 106.656 18.4979 104.54 18.8843V18.8843Z" fill="#292C32"/>
<path d="M132.931 16.9004C135.99 14.015 140.706 13.036 144.631 14.556C148.353 15.973 150.724 19.554 151.922 23.2381C146.39 25.5567 140.884 27.8496 135.353 30.1683C136.118 31.6367 137.29 32.9764 138.871 33.5174C141.088 34.3161 143.739 34.0327 145.6 32.5384C146.339 31.9717 146.926 31.2245 147.486 30.5032C148.888 31.4564 150.29 32.3839 151.692 33.3371C149.704 36.3513 146.365 38.4639 142.771 38.7988C138.794 39.2883 134.563 37.7425 131.988 34.5995C127.757 29.653 128.165 21.3574 132.931 16.9004V16.9004ZM135.659 21.6665C134.792 22.9289 134.435 24.4747 134.461 25.9947C138.157 24.4489 141.853 22.9032 145.549 21.3316C144.937 19.8889 143.459 19.013 141.955 18.7811C139.533 18.3431 137.01 19.657 135.659 21.6665V21.6665Z" fill="#292C32"/>
</svg>
