<svg width="131" height="138" viewBox="0 0 131 138" fill="none" xmlns="http://www.w3.org/2000/svg">
<g clip-path="url(#clip0_710_777)">
<g clip-path="url(#clip1_710_777)">
<g clip-path="url(#clip2_710_777)">
<path d="M57.9165 137.945C89.9029 137.945 115.833 112.005 115.833 80.0058C115.833 48.0069 89.9029 22.0668 57.9165 22.0668C25.9301 22.0668 0 48.0069 0 80.0058C0 112.005 25.9301 137.945 57.9165 137.945Z" fill="#E9FBD5"/>
<mask id="mask0_710_777" style="mask-type:alpha" maskUnits="userSpaceOnUse" x="0" y="0" width="130" height="138">
<path d="M127.148 89.3078C128.397 102.332 121.838 97.7752 119.978 103.455C118.698 107.365 114.052 109.561 112.012 113.054C109.443 117.456 102.261 117.617 98.6631 121.181C88.199 131.545 73.8049 137.945 57.9165 137.945C25.9301 137.945 0 112.005 0 80.0059C0 48.0071 0 0.944946 57.9165 0.944946C98.8652 0.944946 115.015 19.6434 118.53 48.3966C118.947 51.8064 129.73 56.1951 129.943 59.525C130.472 67.8302 127.148 82.6161 127.148 89.3078Z" fill="#EFA6B4"/>
</mask>
<g mask="url(#mask0_710_777)">
<path d="M78.0134 23.0507H24.1895C18.6666 23.0507 14.1895 27.5278 14.1895 33.0507V144.007C14.1895 149.53 18.6666 154.007 24.1895 154.007H78.0134C83.5362 154.007 88.0134 149.53 88.0134 144.007V33.0507C88.0134 27.5278 83.5362 23.0507 78.0134 23.0507Z" fill="#292C32" stroke="#292C32" stroke-width="2"/>
<path d="M84.8298 14.5277H31.0059C25.483 14.5277 21.0059 19.0049 21.0059 24.5277V135.484C21.0059 141.007 25.483 145.484 31.0059 145.484H84.8298C90.3526 145.484 94.8298 141.007 94.8298 135.484V24.5277C94.8298 19.0049 90.3526 14.5277 84.8298 14.5277Z" fill="white" stroke="#292C32" stroke-width="2"/>
<path d="M63.0605 32.3347C60.9882 31.1378 58.6374 30.5077 56.2446 30.5079C53.8517 30.508 51.501 31.1384 49.4289 32.3355C47.3567 33.5327 45.6362 35.2544 44.4401 37.3278C43.244 39.4011 42.6147 41.7528 42.6152 44.1466" stroke="#134F1A" stroke-width="3.5" stroke-linecap="round" stroke-linejoin="round"/>
<path d="M69.8762 44.1466C69.8786 42.2698 69.4925 40.4127 68.7422 38.6925" stroke="#134F1A" stroke-width="3.5" stroke-linecap="round" stroke-linejoin="round"/>
<path d="M56.2461 71.4176C57.1616 71.4177 58.0748 71.3263 58.9721 71.1449" stroke="#134F1A" stroke-width="3.5" stroke-linecap="round" stroke-linejoin="round"/>
<path d="M42.6152 52.328V57.7821C42.6145 60.4359 43.3879 63.0323 44.8405 65.2528C46.2932 67.4734 48.362 69.2216 50.7933 70.2831" stroke="#134F1A" stroke-width="3.5" stroke-linecap="round" stroke-linejoin="round"/>
<path d="M64.4235 46.8737V44.1466C64.4238 42.7103 64.0461 41.2993 63.3284 40.0554C62.6108 38.8114 61.5783 37.7784 60.335 37.0602C59.0918 36.3419 57.6815 35.9638 56.2458 35.9637C54.8101 35.9636 53.3996 36.3417 52.1562 37.0598" stroke="#134F1A" stroke-width="3.5" stroke-linecap="round" stroke-linejoin="round"/>
<path d="M48.0664 44.1466V57.782C48.0664 59.9518 48.928 62.0328 50.4617 63.5671C51.9954 65.1013 54.0755 65.9633 56.2445 65.9633" stroke="#134F1A" stroke-width="3.5" stroke-linecap="round" stroke-linejoin="round"/>
<path d="M58.9735 50.9644V44.1467C58.9735 43.4234 58.6863 42.7298 58.1751 42.2184C57.6639 41.7069 56.9705 41.4196 56.2475 41.4196C55.5245 41.4196 54.8311 41.7069 54.3199 42.2184C53.8087 42.7298 53.5215 43.4234 53.5215 44.1467V49.6009" stroke="#134F1A" stroke-width="3.5" stroke-linecap="round" stroke-linejoin="round"/>
<path d="M53.5215 57.7821C53.5215 58.5053 53.8087 59.199 54.3199 59.7104C54.8312 60.2218 55.5245 60.5092 56.2475 60.5092" stroke="#134F1A" stroke-width="3.5" stroke-linecap="round" stroke-linejoin="round"/>
<path d="M61.6875 60.5094C61.6875 63.4024 62.8363 66.177 64.8812 68.2227C66.9262 70.2685 69.6997 71.4177 72.5916 71.4177C75.4836 71.4177 78.2571 70.2685 80.302 68.2227C82.3469 66.177 83.4958 63.4024 83.4958 60.5094C83.4958 57.6163 82.3469 54.8417 80.302 52.796C78.2571 50.7503 75.4836 49.601 72.5916 49.601C69.6997 49.601 66.9262 50.7503 64.8812 52.796C62.8363 54.8417 61.6875 57.6163 61.6875 60.5094Z" fill="#B6F174"/>
<path d="M77.4554 57.3367L72.176 64.3799C72.0586 64.5361 71.9091 64.6653 71.7375 64.7587C71.5659 64.8521 71.3763 64.9075 71.1814 64.9213C70.9866 64.9351 70.791 64.9069 70.608 64.8386C70.425 64.7703 70.2588 64.6635 70.1206 64.5254L67.3945 61.7983" stroke="white" stroke-width="2" stroke-linecap="round" stroke-linejoin="round"/>
<path d="M42.1562 14.7338H73.6786V15.6799C73.6786 17.889 71.8877 19.6799 69.6786 19.6799H46.1562C43.9471 19.6799 42.1562 17.889 42.1562 15.6799V14.7338Z" fill="#292C32"/>
<path d="M111.471 86.1198H43.4746C42.37 86.1198 41.4746 87.0152 41.4746 88.1198V106.304C41.4746 107.409 42.37 108.304 43.4746 108.304H111.471C112.575 108.304 113.471 107.409 113.471 106.304V88.1198C113.471 87.0152 112.575 86.1198 111.471 86.1198Z" fill="#292C32" stroke="#292C32" stroke-width="2"/>
<path d="M115.73 81.0059H47.7344C46.6298 81.0059 45.7344 81.9013 45.7344 83.0059V101.19C45.7344 102.295 46.6298 103.19 47.7344 103.19H115.73C116.835 103.19 117.73 102.295 117.73 101.19V83.0059C117.73 81.9013 116.835 81.0059 115.73 81.0059Z" fill="#B6F174" stroke="#292C32" stroke-width="2"/>
<path d="M64.5575 89.9935C64.4053 89.7615 64.1673 89.5994 63.8958 89.5429C63.6242 89.4864 63.3414 89.54 63.1094 89.692L62.935 89.8065C62.8824 89.8409 62.8214 89.8605 62.7586 89.8632C62.6958 89.8659 62.6334 89.8515 62.5781 89.8216C62.5228 89.7917 62.4766 89.7474 62.4443 89.6934C62.4121 89.6394 62.3951 89.5777 62.3951 89.5148V89.3068C62.3951 89.0292 62.2848 88.763 62.0886 88.5667C61.8924 88.3704 61.6262 88.2601 61.3487 88.2601C61.0712 88.2601 60.8051 88.3704 60.6089 88.5667C60.4126 88.763 60.3024 89.0292 60.3024 89.3068V89.4897C60.3025 89.5529 60.2853 89.6149 60.2529 89.6692C60.2204 89.7234 60.1738 89.7678 60.1181 89.7976C60.0624 89.8274 59.9996 89.8415 59.9364 89.8384C59.8733 89.8353 59.8122 89.8151 59.7597 89.7799L59.6076 89.6781C59.3767 89.5277 59.0959 89.4745 58.826 89.5301C58.5561 89.5856 58.3191 89.7454 58.1662 89.9747C58.0134 90.204 57.9572 90.4844 58.0097 90.755C58.0623 91.0255 58.2194 91.2644 58.4469 91.4198L59.0161 91.798C59.0637 91.8304 59.1027 91.8738 59.1297 91.9247C59.1567 91.9755 59.1709 92.0322 59.171 92.0897C59.1707 92.1467 59.1564 92.2027 59.1294 92.2528C59.1024 92.303 59.0635 92.3457 59.0161 92.3772L58.4469 92.7513C58.3278 92.8247 58.2246 92.9212 58.1434 93.0352C58.0622 93.1492 58.0047 93.2783 57.9743 93.4149C57.9438 93.5515 57.9411 93.6928 57.9662 93.8305C57.9913 93.9681 58.0438 94.0994 58.1205 94.2164C58.1972 94.3335 58.2965 94.4339 58.4127 94.5119C58.5289 94.5898 58.6595 94.6437 58.7969 94.6703C58.9342 94.6968 59.0755 94.6956 59.2124 94.6666C59.3492 94.6376 59.4789 94.5814 59.5937 94.5014L59.7667 94.3884C59.8192 94.3535 59.8802 94.3337 59.9431 94.331C60.0061 94.3283 60.0685 94.3428 60.1238 94.373C60.179 94.4031 60.2251 94.4474 60.2573 94.5015C60.2894 94.5555 60.3065 94.6172 60.3066 94.6801V94.8894C60.3066 95.167 60.4168 95.4333 60.6131 95.6296C60.8093 95.8259 61.0754 95.9361 61.3529 95.9361C61.6304 95.9361 61.8966 95.8259 62.0928 95.6296C62.289 95.4333 62.3992 95.167 62.3992 94.8894V94.7066C62.3994 94.6435 62.4168 94.5816 62.4493 94.5276C62.4819 94.4735 62.5285 94.4293 62.5842 94.3997C62.6399 94.37 62.7025 94.356 62.7655 94.3592C62.8286 94.3624 62.8895 94.3826 62.9419 94.4177L63.094 94.5182C63.3249 94.6685 63.6058 94.7217 63.8756 94.6662C64.1455 94.6106 64.3826 94.4508 64.5354 94.2215C64.6882 93.9922 64.7445 93.7118 64.6919 93.4413C64.6394 93.1707 64.4823 92.9318 64.2547 92.7764L63.6883 92.3982C63.64 92.3666 63.6002 92.3234 63.5727 92.2726C63.5452 92.2218 63.5308 92.165 63.5308 92.1072C63.5308 92.0494 63.5452 91.9925 63.5727 91.9417C63.6002 91.8909 63.64 91.8478 63.6883 91.8162L64.2589 91.4422C64.3737 91.3667 64.4724 91.2694 64.5495 91.1557C64.6267 91.042 64.6806 90.9143 64.7084 90.7797C64.7361 90.6452 64.737 90.5065 64.7111 90.3716C64.6852 90.2367 64.633 90.1082 64.5575 89.9935Z" fill="white"/>
<path d="M78.1512 89.9935C77.9991 89.7615 77.7611 89.5994 77.4895 89.5429C77.218 89.4864 76.9351 89.54 76.7031 89.692L76.5287 89.8065C76.4761 89.8409 76.4152 89.8605 76.3524 89.8632C76.2896 89.8659 76.2272 89.8515 76.1719 89.8216C76.1165 89.7917 76.0703 89.7474 76.0381 89.6934C76.0059 89.6394 75.9888 89.5777 75.9888 89.5148V89.3068C75.9888 89.0292 75.8786 88.763 75.6823 88.5667C75.4861 88.3704 75.22 88.2601 74.9425 88.2601C74.665 88.2601 74.3988 88.3704 74.2026 88.5667C74.0064 88.763 73.8962 89.0292 73.8962 89.3068V89.4897C73.8962 89.5529 73.8791 89.6149 73.8466 89.6692C73.8142 89.7234 73.7676 89.7678 73.7118 89.7976C73.6561 89.8274 73.5933 89.8415 73.5302 89.8384C73.4671 89.8353 73.406 89.8151 73.3535 89.7799L73.2014 89.6781C72.9705 89.5277 72.6896 89.4745 72.4198 89.5301C72.1499 89.5856 71.9128 89.7454 71.76 89.9747C71.6072 90.204 71.5509 90.4844 71.6035 90.755C71.656 91.0255 71.8131 91.2644 72.0407 91.4198L72.6099 91.798C72.6575 91.8304 72.6965 91.8738 72.7235 91.9247C72.7505 91.9755 72.7646 92.0322 72.7647 92.0897C72.7644 92.1467 72.7502 92.2027 72.7232 92.2528C72.6962 92.303 72.6572 92.3457 72.6099 92.3772L72.0407 92.7513C71.9215 92.8247 71.8183 92.9212 71.7372 93.0352C71.656 93.1492 71.5985 93.2783 71.568 93.4149C71.5376 93.5515 71.5349 93.6928 71.56 93.8305C71.5851 93.9681 71.6375 94.0994 71.7142 94.2164C71.7909 94.3335 71.8903 94.4339 72.0065 94.5119C72.1227 94.5898 72.2533 94.6437 72.3906 94.6703C72.528 94.6968 72.6693 94.6956 72.8061 94.6666C72.943 94.6376 73.0727 94.5814 73.1874 94.5014L73.3604 94.3884C73.4129 94.3535 73.4739 94.3337 73.5369 94.331C73.5998 94.3283 73.6623 94.3428 73.7176 94.373C73.7728 94.4031 73.8189 94.4474 73.851 94.5015C73.8832 94.5555 73.9002 94.6172 73.9003 94.6801V94.8894C73.9003 95.167 74.0106 95.4333 74.2068 95.6296C74.403 95.8259 74.6692 95.9361 74.9467 95.9361C75.2242 95.9361 75.4903 95.8259 75.6865 95.6296C75.8828 95.4333 75.993 95.167 75.993 94.8894V94.7066C75.9932 94.6435 76.0105 94.5816 76.0431 94.5276C76.0756 94.4735 76.1222 94.4293 76.1779 94.3997C76.2336 94.37 76.2963 94.356 76.3593 94.3592C76.4223 94.3624 76.4833 94.3826 76.5357 94.4177L76.6878 94.5182C76.9187 94.6685 77.1995 94.7217 77.4694 94.6662C77.7393 94.6106 77.9763 94.4508 78.1292 94.2215C78.282 93.9922 78.3382 93.7118 78.2857 93.4413C78.2331 93.1707 78.076 92.9318 77.8485 92.7764L77.2821 92.3982C77.2337 92.3666 77.194 92.3234 77.1665 92.2726C77.139 92.2218 77.1246 92.165 77.1246 92.1072C77.1246 92.0494 77.139 91.9925 77.1665 91.9417C77.194 91.8909 77.2337 91.8478 77.2821 91.8162L77.8527 91.4422C77.9674 91.3667 78.0662 91.2694 78.1433 91.1557C78.2204 91.042 78.2744 90.9143 78.3021 90.7797C78.3298 90.6452 78.3308 90.5065 78.3049 90.3716C78.279 90.2367 78.2268 90.1082 78.1512 89.9935Z" fill="white"/>
<path d="M91.7469 89.9935C91.5948 89.7615 91.3568 89.5994 91.0852 89.5429C90.8137 89.4864 90.5308 89.54 90.2988 89.692L90.1244 89.8065C90.0718 89.8409 90.0109 89.8605 89.9481 89.8632C89.8853 89.8659 89.8229 89.8515 89.7676 89.8216C89.7122 89.7917 89.666 89.7474 89.6338 89.6934C89.6016 89.6394 89.5845 89.5777 89.5845 89.5148V89.3068C89.5845 89.0292 89.4743 88.763 89.2781 88.5667C89.0818 88.3704 88.8157 88.2601 88.5382 88.2601C88.2607 88.2601 87.9945 88.3704 87.7983 88.5667C87.6021 88.763 87.4919 89.0292 87.4919 89.3068V89.4897C87.4919 89.5529 87.4748 89.6149 87.4423 89.6692C87.4099 89.7234 87.3633 89.7678 87.3075 89.7976C87.2518 89.8274 87.189 89.8415 87.1259 89.8384C87.0628 89.8353 87.0017 89.8151 86.9492 89.7799L86.7971 89.6781C86.5662 89.5277 86.2853 89.4745 86.0155 89.5301C85.7456 89.5856 85.5085 89.7454 85.3557 89.9747C85.2029 90.204 85.1466 90.4844 85.1992 90.755C85.2517 91.0255 85.4088 91.2644 85.6364 91.4198L86.2056 91.798C86.2532 91.8304 86.2922 91.8738 86.3192 91.9247C86.3462 91.9755 86.3603 92.0322 86.3604 92.0897C86.3601 92.1467 86.3459 92.2027 86.3189 92.2528C86.2919 92.303 86.253 92.3457 86.2056 92.3772L85.6364 92.7513C85.5172 92.8247 85.414 92.9212 85.3329 93.0352C85.2517 93.1492 85.1942 93.2783 85.1637 93.4149C85.1333 93.5515 85.1306 93.6928 85.1557 93.8305C85.1808 93.9681 85.2332 94.0994 85.3099 94.2164C85.3866 94.3335 85.486 94.4339 85.6022 94.5119C85.7184 94.5898 85.849 94.6437 85.9863 94.6703C86.1237 94.6968 86.265 94.6956 86.4018 94.6666C86.5387 94.6376 86.6684 94.5814 86.7831 94.5014L86.9561 94.3884C87.0086 94.3535 87.0696 94.3337 87.1326 94.331C87.1955 94.3283 87.258 94.3428 87.3133 94.373C87.3685 94.4031 87.4146 94.4474 87.4467 94.5015C87.4789 94.5555 87.4959 94.6172 87.496 94.6801V94.8894C87.496 95.167 87.6063 95.4333 87.8025 95.6296C87.9987 95.8259 88.2649 95.9361 88.5424 95.9361C88.8199 95.9361 89.086 95.8259 89.2822 95.6296C89.4785 95.4333 89.5887 95.167 89.5887 94.8894V94.7066C89.5889 94.6435 89.6062 94.5816 89.6388 94.5276C89.6713 94.4735 89.7179 94.4293 89.7736 94.3997C89.8293 94.37 89.892 94.356 89.955 94.3592C90.018 94.3624 90.079 94.3826 90.1314 94.4177L90.2835 94.5182C90.5144 94.6685 90.7952 94.7217 91.0651 94.6662C91.335 94.6106 91.572 94.4508 91.7249 94.2215C91.8777 93.9922 91.9339 93.7118 91.8814 93.4413C91.8288 93.1707 91.6717 92.9318 91.4442 92.7764L90.8778 92.3982C90.8294 92.3666 90.7897 92.3234 90.7622 92.2726C90.7347 92.2218 90.7203 92.165 90.7203 92.1072C90.7203 92.0494 90.7347 91.9925 90.7622 91.9417C90.7897 91.8909 90.8294 91.8478 90.8778 91.8162L91.4484 91.4422C91.5631 91.3667 91.6619 91.2694 91.739 91.1557C91.8161 91.042 91.8701 90.9143 91.8978 90.7797C91.9255 90.6452 91.9265 90.5065 91.9006 90.3716C91.8747 90.2367 91.8225 90.1082 91.7469 89.9935Z" fill="white"/>
<path d="M105.341 89.9935C105.189 89.7615 104.951 89.5994 104.679 89.5429C104.407 89.4864 104.125 89.54 103.893 89.692L103.718 89.8065C103.666 89.8409 103.605 89.8605 103.542 89.8632C103.479 89.8659 103.417 89.8515 103.361 89.8216C103.306 89.7917 103.26 89.7474 103.228 89.6934C103.195 89.6394 103.178 89.5777 103.178 89.5148V89.3068C103.178 89.0292 103.068 88.763 102.872 88.5667C102.676 88.3704 102.409 88.2601 102.132 88.2601C101.854 88.2601 101.588 88.3704 101.392 88.5667C101.196 88.763 101.086 89.0292 101.086 89.3068V89.4897C101.086 89.5529 101.069 89.6149 101.036 89.6692C101.004 89.7234 100.957 89.7678 100.901 89.7976C100.846 89.8274 100.783 89.8415 100.72 89.8384C100.657 89.8353 100.595 89.8151 100.543 89.7799L100.391 89.6781C100.16 89.5277 99.8791 89.4745 99.6092 89.5301C99.3394 89.5856 99.1023 89.7454 98.9495 89.9747C98.7966 90.204 98.7404 90.4844 98.7929 90.755C98.8455 91.0255 99.0026 91.2644 99.2301 91.4198L99.7993 91.798C99.8469 91.8304 99.8859 91.8738 99.9129 91.9247C99.9399 91.9755 99.9541 92.0322 99.9542 92.0897C99.9539 92.1467 99.9396 92.2027 99.9126 92.2528C99.8856 92.303 99.8467 92.3457 99.7993 92.3772L99.2301 92.7513C99.111 92.8247 99.0078 92.9212 98.9266 93.0352C98.8454 93.1492 98.7879 93.2783 98.7575 93.4149C98.727 93.5515 98.7243 93.6928 98.7494 93.8305C98.7745 93.9681 98.827 94.0994 98.9037 94.2164C98.9804 94.3335 99.0797 94.4339 99.1959 94.5119C99.3121 94.5898 99.4427 94.6437 99.5801 94.6703C99.7174 94.6968 99.8587 94.6956 99.9956 94.6666C100.132 94.6376 100.262 94.5814 100.377 94.5014L100.55 94.3884C100.602 94.3535 100.663 94.3337 100.726 94.331C100.789 94.3283 100.852 94.3428 100.907 94.373C100.962 94.4031 101.008 94.4474 101.04 94.5015C101.073 94.5555 101.09 94.6172 101.09 94.6801V94.8894C101.09 95.167 101.2 95.4333 101.396 95.6296C101.592 95.8259 101.859 95.9361 102.136 95.9361C102.414 95.9361 102.68 95.8259 102.876 95.6296C103.072 95.4333 103.182 95.167 103.182 94.8894V94.7066C103.183 94.6435 103.2 94.5816 103.233 94.5276C103.265 94.4735 103.312 94.4293 103.367 94.3997C103.423 94.37 103.486 94.356 103.549 94.3592C103.612 94.3624 103.673 94.3826 103.725 94.4177L103.877 94.5182C104.108 94.6685 104.389 94.7217 104.659 94.6662C104.929 94.6106 105.166 94.4508 105.319 94.2215C105.471 93.9922 105.528 93.7118 105.475 93.4413C105.423 93.1707 105.265 92.9318 105.038 92.7764L104.472 92.3982C104.423 92.3666 104.383 92.3234 104.356 92.2726C104.328 92.2218 104.314 92.165 104.314 92.1072C104.314 92.0494 104.328 91.9925 104.356 91.9417C104.383 91.8909 104.423 91.8478 104.472 91.8162L105.042 91.4422C105.157 91.3667 105.256 91.2694 105.333 91.1557C105.41 91.042 105.464 90.9143 105.492 90.7797C105.519 90.6452 105.52 90.5065 105.494 90.3716C105.468 90.2367 105.416 90.1082 105.341 89.9935Z" fill="white"/>
</g>
</g>
</g>
</g>
<defs>
<clipPath id="clip0_710_777">
<rect width="131" height="137" fill="white" transform="translate(0 0.944946)"/>
</clipPath>
<clipPath id="clip1_710_777">
<rect width="131" height="137" fill="white" transform="translate(0 0.944946)"/>
</clipPath>
<clipPath id="clip2_710_777">
<rect width="131" height="137" fill="white" transform="translate(0 0.944946)"/>
</clipPath>
</defs>
</svg>
