<svg width="131" height="138" viewBox="0 0 131 138" fill="none" xmlns="http://www.w3.org/2000/svg">
<g clip-path="url(#clip0_710_752)">
<g clip-path="url(#clip1_710_752)">
<path d="M54.5745 127.985C84.7152 127.985 109.149 103.378 109.149 73.0239C109.149 42.6697 84.7152 18.0627 54.5745 18.0627C24.4338 18.0627 0 42.6697 0 73.0239C0 103.378 24.4338 127.985 54.5745 127.985Z" fill="#E9FBD5"/>
<path d="M91.1562 74.7244C91.1562 95.342 74.5618 112.044 54.1064 112.044C33.651 112.044 17.0566 95.342 17.0566 74.7244C17.0566 54.1067 33.651 37.4049 54.1064 37.4049C74.5618 37.4049 91.1562 54.1067 91.1562 74.7244Z" fill="#292C32" stroke="#292C32" stroke-width="2"/>
<path d="M95.1699 70.6819C95.1699 91.2995 78.5755 108.001 58.1201 108.001C37.6647 108.001 21.0703 91.2995 21.0703 70.6819C21.0703 50.0643 37.6647 33.3624 58.1201 33.3624C78.5755 33.3624 95.1699 50.0643 95.1699 70.6819Z" fill="white" stroke="#292C32" stroke-width="2"/>
<path d="M82.987 70.6816C82.987 84.5229 71.8433 95.7354 58.1165 95.7354C44.3898 95.7354 33.2461 84.5229 33.2461 70.6816C33.2461 56.8403 44.3898 45.6278 58.1165 45.6278C71.8433 45.6278 82.987 56.8403 82.987 70.6816Z" fill="#B6F174" stroke="#292C32" stroke-width="2"/>
<path d="M49.0605 83.7085V57.6547H59.6661C62.7835 57.6547 65.1429 58.2604 66.7546 59.4719C68.3664 60.6834 69.1696 62.459 69.1696 64.7947C69.1696 66.0714 68.8463 67.1969 68.2047 68.1687C67.5579 69.1405 66.6589 69.8531 65.5064 70.3064C66.8206 70.6425 67.8554 71.3134 68.6134 72.3321C69.3727 73.343 69.7569 74.5792 69.7569 76.05C69.7569 78.5537 68.9692 80.4518 67.3923 81.7388C65.8155 83.0259 63.5726 83.6824 60.657 83.7085H49.0605ZM54.2346 68.0762H59.8783C62.5468 68.0306 63.8856 67.0028 63.8856 64.8911C63.8856 63.7109 63.5467 62.8602 62.8702 62.3418C62.1937 61.8233 61.1265 61.5627 59.6661 61.5627H54.2346V68.0762ZM54.2346 71.9843V79.8004H60.5005C61.7435 79.8004 64.5828 79.1894 64.5828 76.4017C64.5828 73.6139 63.138 72.0194 60.7022 71.9843H54.2346Z" fill="white"/>
<path d="M52.9434 53.7467H56.8239V60.2602H52.9434V53.7467ZM59.411 53.7467H63.2915V60.2602H59.411V53.7467ZM52.9434 81.1032H56.8239V87.6167H52.9434V81.1032ZM59.411 81.1032H63.2915V87.6167H59.411V81.1032Z" fill="white"/>
<path d="M120.79 40.0821C120.79 54.3726 109.288 65.9452 95.1155 65.9452C80.9428 65.9452 69.4414 54.3726 69.4414 40.0821C69.4414 25.7916 80.9428 14.2189 95.1155 14.2189C109.288 14.2189 120.79 25.7916 120.79 40.0821Z" fill="#292C32" stroke="#292C32" stroke-width="2"/>
<path d="M124.001 36.8482C124.001 51.1387 112.499 62.7114 98.3265 62.7114C84.1537 62.7114 72.6523 51.1387 72.6523 36.8482C72.6523 22.5577 84.1537 10.985 98.3265 10.985C112.499 10.985 124.001 22.5577 124.001 36.8482Z" fill="#134F1A" stroke="#292C32" stroke-width="2"/>
<path d="M88.3848 36.639L98.2568 41.8494L108.265 36.6939" stroke="white" stroke-width="2"/>
<path d="M98.2207 18.5458V55.1503" stroke="white" stroke-width="2"/>
<path d="M98.3125 18.9283L107.573 37.117" stroke="white" stroke-width="2"/>
<path d="M98.1367 18.9039L88.9521 37.2891" stroke="white" stroke-width="2"/>
<path d="M98.3223 54.7633L107.918 37.0247" stroke="white" stroke-width="2"/>
<path d="M98.125 54.7653L88.7271 36.9855" stroke="white" stroke-width="2"/>
</g>
</g>
<defs>
<clipPath id="clip0_710_752">
<rect width="131" height="137" fill="white" transform="translate(0 0.984985)"/>
</clipPath>
<clipPath id="clip1_710_752">
<rect width="131" height="137" fill="white" transform="translate(0 0.984985)"/>
</clipPath>
</defs>
</svg>
