<svg width="100" height="100" viewBox="0 0 100 100" fill="none" xmlns="http://www.w3.org/2000/svg">
<g clip-path="url(#clip0_1231_1007)">
<path d="M49.9921 99.9842C77.602 99.9842 99.9842 77.602 99.9842 49.9921C99.9842 22.3822 77.602 0 49.9921 0C22.3822 0 0 22.3822 0 49.9921C0 77.602 22.3822 99.9842 49.9921 99.9842Z" fill="#E9FBD5"/>
<path d="M67.8013 26.5158V77.8535H32.4997C30.0144 77.8535 28.0039 75.843 28.0039 73.3577V31.0116C28.0039 28.5263 30.0144 26.5158 32.4997 26.5158H67.8013Z" fill="#191919" stroke="#191919" stroke-width="1.31391" stroke-linecap="round" stroke-linejoin="round"/>
<path d="M67.8013 26.5158V77.8535H32.4997C30.0144 77.8535 28.0039 75.843 28.0039 73.3577V31.0116C28.0039 28.5263 30.0144 26.5158 32.4997 26.5158H67.8013Z" fill="#191919" stroke="#191919" stroke-width="1.31391" stroke-linecap="round" stroke-linejoin="round"/>
<path d="M67.8013 68.8619V77.8377H32.4997C30.0144 77.8377 28.0039 75.8272 28.0039 73.3419C28.0039 72.0913 28.5105 70.9831 29.3178 70.1758C30.1252 69.3526 31.2491 68.8619 32.4839 68.8619H67.7854H67.8013Z" fill="#191919" stroke="#191919" stroke-width="1.31391" stroke-linecap="round" stroke-linejoin="round"/>
<path d="M67.8007 73.3577H33.623" stroke="#191919" stroke-width="1.31391" stroke-linecap="round" stroke-linejoin="round"/>
<path d="M71.6802 38.6576L67.8018 39.4491V30.2834L71.6802 31.0907V38.6576Z" fill="#191919" stroke="#191919" stroke-width="1.31391" stroke-linecap="round" stroke-linejoin="round"/>
<path d="M71.6802 51.3852L67.8018 52.1925V43.0268L71.6802 43.8183V51.3852Z" fill="#191919" stroke="#191919" stroke-width="1.31391" stroke-linecap="round" stroke-linejoin="round"/>
<path d="M71.6802 64.1127L67.8018 64.92V55.7543L71.6802 56.5616V64.1127Z" fill="#191919" stroke="#191919" stroke-width="1.31391" stroke-linecap="round" stroke-linejoin="round"/>
<path d="M69.938 24.3787V75.7164H34.6364C32.1511 75.7164 30.1406 73.7059 30.1406 71.2206V28.8745C30.1406 26.3892 32.1511 24.3787 34.6364 24.3787H69.938Z" fill="#C1EE83" stroke="#191919" stroke-width="1.31391" stroke-linecap="round" stroke-linejoin="round"/>
<path d="M69.938 24.3787V75.7164H34.6364C32.1511 75.7164 30.1406 73.7059 30.1406 71.2206V28.8745C30.1406 26.3892 32.1511 24.3787 34.6364 24.3787H69.938Z" fill="#C1EE83" stroke="#191919" stroke-width="2" stroke-linecap="round" stroke-linejoin="round"/>
<path d="M69.938 66.7249V75.7006H34.6364C32.1511 75.7006 30.1406 73.6902 30.1406 71.2048C30.1406 69.9542 30.6472 68.8461 31.4545 68.0388C32.2619 67.2156 33.3858 66.7249 34.6206 66.7249H69.9222H69.938Z" fill="white" stroke="#191919" stroke-width="2" stroke-linecap="round" stroke-linejoin="round"/>
<path d="M69.9374 71.2206H35.7598" stroke="#191919" stroke-width="2" stroke-linecap="round" stroke-linejoin="round"/>
<path d="M73.8169 36.5206L69.9385 37.3121V28.1464L73.8169 28.9537V36.5206Z" fill="white" stroke="#191919" stroke-width="2" stroke-linecap="round" stroke-linejoin="round"/>
<path d="M73.8169 49.2481L69.9385 50.0555V40.8897L73.8169 41.6812V49.2481Z" fill="white" stroke="#191919" stroke-width="2" stroke-linecap="round" stroke-linejoin="round"/>
<path d="M73.8169 61.9757L69.9385 62.783V53.6172L73.8169 54.4246V61.9757Z" fill="white" stroke="#191919" stroke-width="2" stroke-linecap="round" stroke-linejoin="round"/>
<path d="M50.0392 55.2002C55.722 55.2002 60.3289 50.5933 60.3289 44.9105C60.3289 39.2276 55.722 34.6208 50.0392 34.6208C44.3564 34.6208 39.7495 39.2276 39.7495 44.9105C39.7495 50.5933 44.3564 55.2002 50.0392 55.2002Z" fill="white" stroke="#191919" stroke-width="2" stroke-linecap="round" stroke-linejoin="round"/>
<path d="M45.8442 45.2271L48.1396 47.4117L54.2343 41.6178" stroke="#191919" stroke-width="2" stroke-linecap="round" stroke-linejoin="round"/>
</g>
<defs>
<clipPath id="clip0_1231_1007">
<rect width="100" height="100" fill="white"/>
</clipPath>
</defs>
</svg>
