<svg width="150" height="144" viewBox="0 0 150 144" fill="none" xmlns="http://www.w3.org/2000/svg">
<g clip-path="url(#clip0_715_1183)">
<g clip-path="url(#clip1_715_1183)">
<g clip-path="url(#clip2_715_1183)">
<mask id="mask0_715_1183" style="mask-type:luminance" maskUnits="userSpaceOnUse" x="0" y="0" width="150" height="144">
<path d="M150 0.509766H0V143.51H150V0.509766Z" fill="white"/>
</mask>
<g mask="url(#mask0_715_1183)">
<path d="M70.3809 143.272C109.803 143.272 141.762 111.313 141.762 71.8907C141.762 32.4681 109.803 0.509766 70.3809 0.509766C30.9583 0.509766 -1 32.4681 -1 71.8907C-1 111.313 30.9583 143.272 70.3809 143.272Z" fill="#E9FBD5"/>
<path d="M46.2655 96.868C40.2171 90.7524 33.5872 83.2802 28.4168 75.4746C23.2316 67.6463 19.5927 59.5984 19.3644 52.3095C19.3337 51.3389 19.9248 49.9895 21.0924 48.3827C22.2268 46.8213 23.7758 45.1894 25.3637 43.6913C26.9466 42.1979 28.5425 40.8615 29.7529 39.8915C30.3573 39.4071 30.864 39.0155 31.2226 38.7427C31.5622 38.4844 31.7599 38.3397 31.7845 38.3217C31.7864 38.3204 31.7872 38.3197 31.7871 38.3198L31.7901 38.3178C34.7627 36.2202 37.8274 37.0822 38.9779 38.6923C39.9895 40.1106 49.7408 55.0609 50.8009 56.7548L50.8018 56.7562C51.6412 58.0925 51.6183 60.3067 50.3264 62.7773L50.3246 62.781C49.5811 64.2168 47.0751 68.6718 45.8915 70.7691L45.5836 71.3144L45.9401 71.8296C47.2451 73.7155 50.6557 78.2522 57.6479 85.3212C64.638 92.39 69.1222 95.8412 70.9935 97.1673L71.5164 97.5378L72.0715 97.2174C74.1452 96.0205 78.5493 93.4858 79.9739 92.7276L79.9768 92.7261C82.3635 91.4458 84.5386 91.4112 85.8797 92.2398C87.6487 93.3359 102.39 103.247 103.74 104.202C104.604 104.812 105.222 105.915 105.343 107.295C105.463 108.672 105.047 110.173 104.119 111.512L104.114 111.52L104.108 111.528L104.107 111.53C104.072 111.579 103.506 112.369 102.581 113.551C101.634 114.762 100.327 116.361 98.8666 117.952C97.4015 119.549 95.8042 121.112 94.2748 122.269C92.6998 123.46 91.3763 124.079 90.4266 124.079H90.4255H90.4244H90.4232H90.4221H90.421H90.4199H90.4187H90.4176H90.4165H90.4154H90.4143H90.4131H90.412H90.4109H90.4098H90.4086H90.4075H90.4064H90.4053H90.4042H90.403H90.4019H90.4008H90.3997H90.3986H90.3974H90.3963H90.3952H90.3941H90.393H90.3918H90.3907H90.3896H90.3885H90.3874H90.3863H90.3852H90.384H90.3829H90.3818H90.3807H90.3796H90.3785H90.3774H90.3763H90.3752H90.3741H90.373H90.3719H90.3708H90.3697H90.3686H90.3675H90.3664H90.3653H90.3642H90.3631H90.362H90.3609H90.3598H90.3587H90.3576H90.3564H90.3553H90.3542H90.3531H90.352H90.3508H90.3497C83.1204 123.835 75.157 120.156 67.4166 114.915C59.6934 109.686 52.3091 102.983 46.2655 96.868Z" fill="#292C32" stroke="#292C32" stroke-width="2"/>
<path d="M49.2655 92.868C43.2171 86.7524 36.5872 79.2802 31.4168 71.4746C26.2316 63.6463 22.5927 55.5984 22.3644 48.3095C22.3337 47.3389 22.9248 45.9895 24.0924 44.3827C25.2268 42.8213 26.7758 41.1894 28.3637 39.6913C29.9466 38.1979 31.5425 36.8615 32.7529 35.8915C33.3573 35.4071 33.864 35.0155 34.2226 34.7427C34.5622 34.4844 34.7599 34.3397 34.7845 34.3217C34.7864 34.3204 34.7872 34.3197 34.7871 34.3198L34.7901 34.3178C37.7627 32.2202 40.8274 33.0822 41.9779 34.6923C42.9895 36.1106 52.7408 51.0609 53.8009 52.7548L53.8018 52.7562C54.6412 54.0925 54.6183 56.3067 53.3264 58.7773L53.3246 58.781C52.5811 60.2168 50.0751 64.6718 48.8915 66.7691L48.5836 67.3144L48.9401 67.8296C50.2451 69.7155 53.6557 74.2522 60.6479 81.3212C67.638 88.39 72.1222 91.8412 73.9935 93.1673L74.5164 93.5378L75.0715 93.2174C77.1452 92.0205 81.5493 89.4858 82.9739 88.7276L82.9768 88.7261C85.3635 87.4458 87.5386 87.4112 88.8797 88.2398C90.6487 89.3359 105.39 99.2465 106.74 100.202C107.604 100.813 108.222 101.915 108.343 103.295C108.463 104.672 108.047 106.173 107.119 107.512L107.114 107.52L107.108 107.528L107.107 107.53C107.072 107.579 106.506 108.369 105.581 109.551C104.634 110.762 103.327 112.361 101.867 113.952C100.401 115.549 98.8042 117.112 97.2748 118.269C95.6998 119.46 94.3763 120.079 93.4266 120.079H93.4255H93.4244H93.4232H93.4221H93.421H93.4199H93.4187H93.4176H93.4165H93.4154H93.4143H93.4131H93.412H93.4109H93.4098H93.4086H93.4075H93.4064H93.4053H93.4042H93.403H93.4019H93.4008H93.3997H93.3986H93.3974H93.3963H93.3952H93.3941H93.393H93.3918H93.3907H93.3896H93.3885H93.3874H93.3863H93.3852H93.384H93.3829H93.3818H93.3807H93.3796H93.3785H93.3774H93.3763H93.3752H93.3741H93.373H93.3719H93.3708H93.3697H93.3686H93.3675H93.3664H93.3653H93.3642H93.3631H93.362H93.3609H93.3598H93.3587H93.3576H93.3564H93.3553H93.3542H93.3531H93.352H93.3508H93.3497C86.1204 119.835 78.157 116.156 70.4166 110.915C62.6934 105.686 55.3091 98.9827 49.2655 92.868Z" fill="#134F1A" stroke="#292C32" stroke-width="2"/>
<path d="M77.8983 56.0847L78.1038 55.6625L77.9102 55.2348C75.9069 50.8083 74.7909 45.8918 74.7909 40.7114C74.7909 21.2682 90.5199 5.50977 109.918 5.50977C129.317 5.50977 145.046 21.2682 145.046 40.7114C145.046 60.1546 129.317 75.913 109.918 75.913C100.353 75.913 91.6827 72.0833 85.3469 65.8678L85.0256 65.5527L84.5767 65.5841L73.2819 66.3756C73.105 66.388 72.9738 66.2023 73.0554 66.0346L77.8983 56.0847Z" fill="#292C32" stroke="#292C32" stroke-width="2"/>
<path d="M81.8983 52.0847L82.1038 51.6625L81.9102 51.2348C79.9069 46.8083 78.7909 41.8918 78.7909 36.7114C78.7909 17.2682 94.5199 1.50977 113.918 1.50977C133.317 1.50977 149.046 17.2682 149.046 36.7114C149.046 56.1546 133.317 71.913 113.918 71.913C104.353 71.913 95.6827 68.0833 89.3469 61.8678L89.0256 61.5527L88.5767 61.5841L77.2819 62.3756C77.105 62.388 76.9738 62.2023 77.0554 62.0346L81.8983 52.0847Z" fill="#B6F174" stroke="#292C32" stroke-width="2"/>
<path d="M113.034 54.8883C115.263 54.8883 117.07 53.0776 117.07 50.844C117.07 48.6104 115.263 46.7998 113.034 46.7998C110.805 46.7998 108.998 48.6104 108.998 50.844C108.998 53.0776 110.805 54.8883 113.034 54.8883Z" fill="white"/>
<path d="M105.483 32.766C106.484 32.766 107.445 32.3964 108.153 31.7386C108.861 31.0808 109.259 30.1885 109.259 29.2582C109.261 28.6263 109.447 28.0067 109.797 27.465C110.147 26.9232 110.649 26.4793 111.248 26.1803C111.847 25.8813 112.522 25.7381 113.202 25.7661C113.881 25.794 114.54 25.9919 115.108 26.3389C115.677 26.686 116.134 27.1692 116.431 27.7376C116.728 28.306 116.855 28.9384 116.797 29.568C116.739 30.1976 116.5 30.8011 116.103 31.3146C115.707 31.8281 115.168 32.2326 114.545 32.4854C112.975 33.1232 111.639 34.1724 110.7 35.5047C109.762 36.8369 109.262 38.3944 109.262 39.9865V41.5439C109.262 42.4742 109.66 43.3665 110.368 44.0243C111.076 44.6821 112.036 45.0517 113.038 45.0517C114.039 45.0517 115 44.6821 115.708 44.0243C116.416 43.3665 116.814 42.4742 116.814 41.5439V39.9865C116.813 39.7584 116.884 39.5352 117.018 39.3443C117.153 39.1533 117.344 39.003 117.569 38.9117C119.44 38.1524 121.055 36.9375 122.244 35.3953C123.433 33.8532 124.151 32.0412 124.322 30.1511C124.494 28.2609 124.112 26.3629 123.217 24.6578C122.323 22.9527 120.949 21.5039 119.241 20.4646C117.533 19.4254 115.554 18.8344 113.514 18.7541C111.474 18.6738 109.449 19.1072 107.652 20.0085C105.856 20.9098 104.355 22.2455 103.308 23.8742C102.262 25.5029 101.708 27.3642 101.707 29.261C101.708 30.1908 102.106 31.0823 102.814 31.7396C103.522 32.3968 104.482 32.766 105.483 32.766Z" fill="white"/>
</g>
</g>
</g>
</g>
<defs>
<clipPath id="clip0_715_1183">
<rect width="150" height="143" fill="white" transform="translate(0 0.509766)"/>
</clipPath>
<clipPath id="clip1_715_1183">
<rect width="150" height="143" fill="white" transform="translate(0 0.509766)"/>
</clipPath>
<clipPath id="clip2_715_1183">
<rect width="150" height="143" fill="white" transform="translate(0 0.509766)"/>
</clipPath>
</defs>
</svg>
