<svg width="150" height="144" viewBox="0 0 150 144" fill="none" xmlns="http://www.w3.org/2000/svg">
<g clip-path="url(#clip0_715_1210)">
<g clip-path="url(#clip1_715_1210)">
<g clip-path="url(#clip2_715_1210)">
<path d="M75.3809 143.272C114.803 143.272 146.762 111.313 146.762 71.8907C146.762 32.4681 114.803 0.509766 75.3809 0.509766C35.9583 0.509766 4 32.4681 4 71.8907C4 111.313 35.9583 143.272 75.3809 143.272Z" fill="#E9FBD5"/>
<path d="M89.0836 35.7786H90.0836V34.7786V27.4286C90.0836 22.7114 86.4509 19.0786 81.7336 19.0786H67.0336C62.3163 19.0786 58.6836 22.7114 58.6836 27.4286V34.7786V35.7786H59.6836H64.5836H65.5836V34.7786V27.4286C65.5836 26.9209 65.7485 26.5755 65.9645 26.3595C66.1804 26.1435 66.5258 25.9786 67.0336 25.9786H81.7336C82.2413 25.9786 82.5868 26.1435 82.8027 26.3595C83.0187 26.5755 83.1836 26.9209 83.1836 27.4286V34.7786V35.7786H84.1836H89.0836ZM35.1828 116.629H113.583C119.525 116.629 124.383 111.771 124.383 105.829V47.0287C124.383 41.0864 119.525 36.2287 113.583 36.2287H35.1828C29.2405 36.2287 24.3828 41.0864 24.3828 47.0287V105.829C24.3828 111.771 29.2405 116.629 35.1828 116.629Z" fill="#292C32" stroke="#292C32" stroke-width="2"/>
<path d="M63.6836 30.7786V31.7786H64.6836H69.5836H70.5836V30.7786V23.4286C70.5836 22.9209 70.7485 22.5755 70.9645 22.3595C71.1804 22.1435 71.5258 21.9786 72.0336 21.9786H86.7336C87.2413 21.9786 87.5868 22.1435 87.8027 22.3595C88.0187 22.5755 88.1836 22.9209 88.1836 23.4286V30.7786V31.7786H89.1836H94.0836H95.0836V30.7786V23.4286C95.0836 18.7114 91.4509 15.0786 86.7336 15.0786H72.0336C67.3163 15.0786 63.6836 18.7114 63.6836 23.4286V30.7786Z" fill="#B6F174" stroke="#292C32" stroke-width="2"/>
<path d="M40.1828 112.629H118.583C124.525 112.629 129.383 107.771 129.383 101.829V43.0285C129.383 37.0862 124.525 32.2285 118.583 32.2285H40.1828C34.2405 32.2285 29.3828 37.0862 29.3828 43.0285V101.829C29.3828 107.771 34.2405 112.629 40.1828 112.629Z" fill="white" stroke="#292C32" stroke-width="2"/>
<path d="M40.1828 75.8785H118.583C124.525 75.8785 129.383 71.0208 129.383 65.0785V43.0285C129.383 37.0862 124.525 32.2285 118.583 32.2285H40.1828C34.2405 32.2285 29.3828 37.0862 29.3828 43.0285V65.0785C29.3828 71.0208 34.2405 75.8785 40.1828 75.8785Z" fill="#134F1A" stroke="#292C32" stroke-width="2"/>
<path d="M74.4832 68.8786H84.2832C85.2455 68.8786 86.125 68.5535 86.7666 67.912C87.4081 67.2705 87.7332 66.3909 87.7332 65.4286V60.5286C87.7332 59.5664 87.4081 58.6868 86.7666 58.0453C86.125 57.4038 85.2455 57.0786 84.2832 57.0786H74.4832C73.521 57.0786 72.6414 57.4038 71.9998 58.0453C71.3583 58.6868 71.0332 59.5664 71.0332 60.5286V65.4286C71.0332 66.3909 71.3583 67.2705 71.9998 67.912C72.6414 68.5535 73.521 68.8786 74.4832 68.8786Z" fill="#B6F174" stroke="#292C32" stroke-width="2"/>
</g>
</g>
</g>
<defs>
<clipPath id="clip0_715_1210">
<rect width="150" height="143" fill="white" transform="translate(0 0.509766)"/>
</clipPath>
<clipPath id="clip1_715_1210">
<rect width="150" height="143" fill="white" transform="translate(0 0.509766)"/>
</clipPath>
<clipPath id="clip2_715_1210">
<rect width="150" height="143" fill="white" transform="translate(0 0.509766)"/>
</clipPath>
</defs>
</svg>
