<svg width="32" height="33" viewBox="0 0 32 33" fill="none" xmlns="http://www.w3.org/2000/svg">
<g opacity="0.98104">
<rect width="32" height="32.98" rx="16" fill="#3F9444"/>
<g clip-path="url(#clip0_686_3449)">
<path d="M17.223 23.584V16.56H19.7001L20.0836 13.808H17.223V12.064C17.223 11.616 17.3136 11.2907 17.4947 11.088C17.7184 10.8427 18.1073 10.72 18.6613 10.72H20.1795V8.27198C19.5509 8.19732 18.8105 8.15998 17.9581 8.15998C17.223 8.15998 16.5758 8.30132 16.0164 8.58398C15.4571 8.86665 15.0283 9.27465 14.7299 9.80798C14.4103 10.3627 14.2505 11.024 14.2505 11.792V13.808H11.7734V16.56H14.2505V23.584H17.223Z" fill="white"/>
</g>
</g>
<defs>
<clipPath id="clip0_686_3449">
<rect width="8.46" height="16" fill="white" transform="matrix(1 0 0 -1 11.7734 24)"/>
</clipPath>
</defs>
</svg>
